<svg xmlns="http://www.w3.org/2000/svg" viewBox="0 0 426 395">
  <g fill="none" fill-rule="evenodd">
    <path fill="#FFF" stroke="#D7DFE3" stroke-width="2" d="M142.93 142.066c-3.714 2.144-8.288 2.144-12 0l-51.386-29.668c-3.712-2.144-6-6.104-6-10.392V42.67c0-4.286 2.288-8.247 6-10.39L130.93 2.613c3.712-2.144 8.286-2.144 12 0l51.385 29.667c3.713 2.143 6 6.104 6 10.39v59.336c0 4.288-2.287 8.248-6 10.392l-51.386 29.668zm-20.615 96.332L70.93 268.066c-3.714 2.144-8.288 2.144-12 0L7.543 238.398c-3.712-2.144-6-6.104-6-10.392V168.67c0-4.286 2.288-8.247 6-10.39l51.385-29.667c3.712-2.144 8.286-2.144 12 0l51.385 29.667c3.713 2.143 6 6.104 6 10.39v59.336c0 4.288-2.287 8.248-6 10.392zm220-126l-51.386 29.668c-3.72 2.144-8.29 2.144-12 0l-51.39-29.668c-3.71-2.144-6-6.104-6-10.392V42.67c0-4.286 2.29-8.247 6-10.39l51.39-29.667c3.71-2.144 8.28-2.144 12 0l51.38 29.667c3.71 2.143 6 6.104 6 10.39v59.336c0 4.288-2.29 8.248-6 10.392zm-148 250l-51.386 29.668c-3.72 2.144-8.29 2.144-12 0l-51.39-29.668c-3.72-2.144-6-6.104-6-10.392V292.67c0-4.286 2.28-8.247 6-10.39l51.38-29.667c3.71-2.144 8.28-2.144 12 0l51.38 29.667c3.71 2.143 6 6.104 6 10.39v59.336c0 4.288-2.29 8.248-6 10.392zm148 0l-51.386 29.668c-3.72 2.144-8.29 2.144-12 0l-51.39-29.668c-3.71-2.144-6-6.104-6-10.392V292.67c0-4.286 2.29-8.247 6-10.39l51.38-29.667c3.71-2.144 8.28-2.144 12 0l51.38 29.667c3.71 2.143 6 6.104 6 10.39v59.336c0 4.288-2.29 8.248-6 10.392zm-72-124l-51.386 29.668c-3.72 2.144-8.29 2.144-12 0l-51.39-29.668c-3.71-2.144-6-6.104-6-10.392V168.67c0-4.286 2.29-8.247 6-10.39l51.38-29.667c3.71-2.144 8.28-2.144 12 0l51.38 29.667c3.71 2.143 6 6.104 6 10.39v59.336c0 4.288-2.29 8.248-6 10.392zm148 0l-51.386 29.668c-3.72 2.144-8.29 2.144-12 0l-51.39-29.668c-3.71-2.144-6-6.104-6-10.392V168.67c0-4.286 2.29-8.247 6-10.39l51.38-29.667c3.71-2.144 8.28-2.144 12 0l51.38 29.667c3.71 2.143 6 6.104 6 10.39v59.336c0 4.288-2.29 8.248-6 10.392z" stroke-linecap="round"/>
    <path fill="#F18573" d="M234.36 176.45c3.85 3.8 2.35 18.85.9 21.9-1.75 3.75-12.85 15.15-22.05 22.85-.45.4-1.05.6-1.65.6-1.2 0-1.7-.45-2.55-.9-1.8-.95-7.15-3.9-11.15-7.95-3.5-3.45-6.1-7.85-7.45-10.15-.9-1.65-2.15-3.55-.85-5.2 7.4-9.4 19.2-20.25 22.9-22.05 1.95-.9 6.95-1.55 11.55-1.55 3.65 0 8.35.4 10.35 2.45zm-10.6 11.15c1.75 1.55 4.45 1.4 6.05-.35 1.55-1.75 1.4-4.45-.35-6.05-1.75-1.55-4.45-1.4-6.05.35-1.55 1.75-1.4 4.45.35 6.05zm-16.1 19.6c3.75 3.05 6.45 3.05 8.4 1.1 2.65-2.7.55-6-2-9.5-1.5-2.2-1.7-2.7-.9-3.5.65-.65 1.65-.45 3 .9 1.05 1 1.7 1.85 2.25 2.75.45.75 1.3 1.3 2 1.25l1.25-.15c.65-.05.85-.75.45-1.5-.55-.95-1.3-2-2.2-3.05l1.65-1.7c.4-.4.2-1.25-.45-1.9l-1.05-1.05c-.65-.6-1.5-.8-1.9-.4l-1.65 1.7c-3-2.4-5.75-3.05-7.8-.95-2.4 2.45-.85 5.4 1.7 9 1.55 2.2 1.95 2.95 1.05 3.9-.85.8-1.9.6-3.8-1.25-1.2-1.2-2.2-2.6-3-4.05-.4-.7-1.25-1.25-1.8-1.1l-1.35.2c-.65.15-.85.8-.4 1.55.7 1.35 1.75 2.9 3.1 4.4l-1.5 1.5c-.4.45-.2 1.3.45 1.9l1.05 1.05c.65.65 1.5.85 1.9.45l1.55-1.55z"/>
    <path fill="#11D1B8" d="M150.645 298c-2.2 0-4.35 1.6-5.45 4.8-1.6 4.45-3.25 14.4-3.25 19.2 0 3.35 1.8 5.15 3.8 5.9-.9 4.85-1.8 9.9-1.8 13.3 0 3.2 2.25 4.8 5.45 4.8s5.35-1.6 5.35-4.8v-38.4c0-2.8-1.85-4.8-4.1-4.8zm-13.5 16l-1.6-13c-.1-.8-.8-1.4-1.6-1.4-.9 0-1.6.7-1.6 1.6v11.2h-3.2v-11.2c0-.9-.7-1.6-1.6-1.6-.9 0-1.6.7-1.6 1.6v11.2h-3.2v-11.2c0-.8-.55-1.5-1.35-1.6-.9-.1-1.7.55-1.8 1.4l-1.55 13.05c-.25 1.95.4 5.75 5.6 7.55-.75 5.45-1.85 14.05-1.85 19.3 0 2.65 2.6 5.1 5.8 5.1 3.2 0 5.75-2.45 5.75-5.1 0-5.25-1.05-13.85-1.85-19.3 4.9-1.65 5.9-5.3 5.65-7.6z"/>
    <path fill="#4A84B8" d="M156.955 51.05c3.15 3.15 3.45 10.15 2.7 15.65-.65 4.45-2.7 12.9-9.35 19.5-9.05 9.1-21.05 9.8-24.5 9.8-3.45 0-8.05-.55-10.65-3.15-3.3-3.25-3.6-10.25-2.75-15.75.65-4.4 2.7-12.75 9.35-19.4 9-9 21.1-9.7 24.6-9.7 3.45 0 8.1.55 10.6 3.05zm-21.2 33.05c.7 0 1.4-.3 1.9-.8 1.1-1.05 1.1-2.8 0-3.85l-2.6-2.65 5.75-5.75 2.6 2.65c.55.5 1.25.8 1.95.8s1.4-.3 1.9-.8c1.1-1.1 1.1-2.8 0-3.85l-2.6-2.65 2.55-2.55c1.05-1.05 1.05-2.8 0-3.85-1.05-1.05-2.8-1.05-3.85 0l-2.55 2.55-2.65-2.6c-1.05-1.1-2.75-1.1-3.85 0-1.05 1.05-1.05 2.75 0 3.85l2.65 2.6-5.75 5.75-2.65-2.6c-1.05-1.1-2.75-1.1-3.85 0-1.05 1.05-1.05 2.75 0 3.85l2.65 2.6-2.55 2.55c-1.05 1.05-1.05 2.8 0 3.85.5.55 1.2.8 1.9.8s1.4-.25 1.95-.8l2.55-2.55 2.6 2.65c.55.5 1.25.8 1.95.8zM306.2 301.35c1.6.2 2.8 1.55 2.8 3.2v24c0 1.6-1.2 2.95-2.8 3.15-7 .9-14.15 1.8-21.2 1.8-7.05 0-14.2-.9-21.2-1.8-1.6-.2-2.8-1.55-2.8-3.15v-24c0-1.65 1.2-3 2.8-3.2 7-.9 14.15-1.35 21.2-1.35 7.05 0 14.2.45 21.2 1.35zm-18.35 23.1c.9.25 1.35.2 1.95-.4.6-.6.8-1.15.45-1.95-.25-.5-2.05-3.1-4.25-5.95l3.65-1.5c.4-.15.7-.55.7-1 0-.45-.2-.85-.6-1.05-.35-.15-7.9-4.05-15.1-4.95-.35-.05-.65.05-.9.3s-.4.45-.35.8c.75 7 4.75 14.6 4.95 14.95.1.2.25.35.45.5.15.1.4.2.6.2.45 0 .85-.4 1-.8l1.45-3.3c2.85 2.3 5.4 4 6 4.15zm-9.25 12.15v2.5l-10.9 2.4c-.8.15-1.3.9-1.25 1.7.1.8.8 1.6 1.6 1.6h33.8c.8 0 1.5-.8 1.6-1.6.1-.8-.45-1.55-1.25-1.7l-10.8-2.5v-2.4c-1.6.05-4.25.3-6.4.3-2.15 0-4.8-.25-6.4-.3z"/>
    <path fill="#F4B854" d="M62.25 174c-3.55.05-7.1.25-10.6.6-.9.1-1.75.55-2.3 1.35-2.6 3.7-4.8 6.8-6.8 9.25h16.5l3.2-11.2zm25.2 11.2c-2-2.45-4.2-5.55-6.8-9.25-.55-.8-1.4-1.25-2.3-1.35-3.5-.35-7.05-.55-10.6-.6l3.2 11.2h16.5zm1.5 3.2H71.4v11.2H58.6v-11.2H41.05c-.05.15-.05.35-.05.5v28.25c0 1.6 1.15 2.95 2.7 3.2 7 1.1 14.2 1.65 21.3 1.65 7.1 0 14.25-.55 21.3-1.65 1.55-.25 2.7-1.6 2.7-3.2V188.9c0-.15-.05-.35-.05-.5zm295.998 15.8c.1.35 0 .75-.2 1.05-.2.3-.5.55-.9.6-.15 0-2.35.45-10.05.55-1.05-.75-2.15-1.35-3.1-1.95-.5-.25-1.1-.6-1.55-.9 4.35-5.75 3.55-10.65 2.1-13.8-1.75-3.85-5.2-5.6-8.4-6.05 0-1.25.3-2.45.8-3.6 1.4-3.05 4.5-4.1 6.95-4.1s5.55 1.05 6.95 4.1c1.45 3.2 1.1 6.75-2.35 10.75-1.35 1.6-.55 2.7.2 3.55.95 1.05 3.95 2.4 6.35 4.1 2.65 1.9 2.55 2.85 3.2 5.7zm-33.65.25c-.95.6-2.05 1.2-3.1 1.95-7.7-.1-9.95-.55-10.05-.55-.4-.05-.7-.3-.9-.6-.25-.3-.3-.7-.2-1.05.65-2.85.5-3.8 3.2-5.7 2.35-1.7 5.4-3.05 6.35-4.1.75-.85 1.55-1.95.2-3.55-3.45-4-3.8-7.55-2.35-10.75 1.4-3.05 4.5-4.1 6.95-4.1s5.55 1.05 6.95 4.1c.5 1.15.8 2.35.8 3.6-3.2.45-6.65 2.2-8.45 6.05-1.4 3.1-2.2 8.05 2.15 13.8-.45.3-1 .6-1.5.9h-.05zm9.7 13.15c-10.35 0-13.1-.55-13.25-.55-.4-.05-.7-.3-.9-.6-.25-.3-.3-.7-.2-1.05.65-2.85.5-3.8 3.2-5.7 2.35-1.7 5.4-3.05 6.35-4.1.75-.85 1.55-1.95.2-3.55-3.45-4-3.8-7.55-2.35-10.75 1.4-3.05 4.5-4.1 6.95-4.1s5.55 1.05 6.95 4.1c1.45 3.2 1.1 6.75-2.35 10.75-1.35 1.6-.55 2.7.2 3.55.95 1.05 3.95 2.4 6.35 4.1 2.65 1.9 2.55 2.85 3.2 5.7.1.35 0 .75-.2 1.05-.2.3-.5.55-.9.6-.15 0-2.95.55-13.25.55z"/>
    <path fill="#11D1B8" d="M307.7 65.45c-1.25-1.35-3.15-1.45-4.25-1.45h-12.5c.65-6.95.85-12.3-1.25-14.7-.65-.8-1.45-1.25-2.5-1.3-2.8 0-3.3 2.65-3.8 4.95-.8 3.95-1.6 9.3-11.2 11.55V88h1.8c3.95 0 5.3.8 7 1.9 2.1 1.3 4.5 2.9 11.2 2.9 15.05 0 15.3-3.7 16.5-19.25l.25-3.45c.15-1.9-.25-3.55-1.25-4.65zM269 64h-8v28.8h8V64z"/>
  </g>
</svg>
