<svg xmlns="http://www.w3.org/2000/svg" viewBox="0 0 213 248"><path fill-rule="evenodd" clip-rule="evenodd" fill="#D7DFE3" d="M182 89H66c-8.3 0-15 6.7-15 15v4H22c-8.3 0-15 6.7-15 15v110c0 8.3 6.7 15 15 15h160c8.3 0 15-6.7 15-15V104c0-8.3-6.7-15-15-15z"/><path fill-rule="evenodd" clip-rule="evenodd" fill="#838383" d="M179.6 92.3c.2-1.9-1.2-3.7-3.1-3.9l-21.1-2.5-21.1-2.5c-1.9-.2-3.7 1.2-3.9 3.1l-2.8 23.9c-.2 1.6.9 3 2.5 3.1l43.6 5.1c1.6.2 3-.9 3.1-2.5l2.8-23.8z"/><path fill-rule="evenodd" clip-rule="evenodd" fill="#FFF" stroke="#D7DFE3" stroke-miterlimit="10" d="M175.1 107l-43.8-5.1 3.5-29.9c.1-1.1 1.1-1.9 2.2-1.8l39.8 4.6c1.1.1 1.9 1.1 1.8 2.2l-3.5 30z"/><path fill-rule="evenodd" clip-rule="evenodd" fill="#11D1B8" d="M153.4 102.5L130.9 85c-.2.4-.4.8-.5 1.2l-2.9 24.6c-.2 1.6.9 3 2.5 3.1l43.6 5.1c1.6.2 3-.9 3.1-2.5l2.9-24.6c.1-.6-.1-1.2-.4-1.7l-25.8 12.3z"/><path fill="#4A84B8" d="M164.9 85.7c-.7 1-2.5 2.5-4.6 3.9.3 2.2.4 4.2.3 5.5 0 .4-.2.6-.5.8-.2.1-.3.1-.5.1s-.3-.1-.4-.1c-.3-.2-.7-.5-1-.7-1-.6-2.1-1.3-3.5-2.4-1.6.7-2.9 1.2-3.9 1.6-.4.1-.8.3-1.1.4-.3.1-.7.1-.9-.2-.3-.2-.4-.6-.3-.9.3-1.3.8-3.2 1.6-5.3-1.7-1.9-3.1-3.7-3.6-4.9-.1-.2-.1-.5 0-.8.1-.2.3-.4.6-.5 1-.3 3.5-.2 5.6 0 .9-1.9 2.3-4.6 3.3-5.4.2-.2.5-.2.7-.2.2 0 .5.2.6.3.8 1 1.5 4 2 6 2.1.3 4.6.8 5.4 1.3.2.1.4.4.4.6 0 .4-.1.6-.2.9z"/><g fill-rule="evenodd" clip-rule="evenodd"><path fill="#FFF" d="M161 227.8V125c0-8.3-6.7-15-15-15H24c-8.3 0-15 6.7-15 15v106c0 8.3 6.7 15 15 15h150.8L161 227.8z"/><path d="M32 131h104v8H32zm0 69h104v8H32zm0 17h104v8H32z" fill="#D7DFE3"/><path fill="#F4B854" d="M96 183h40v8H96z"/><path fill="#F18573" d="M96 166h40v8H96z"/><path fill="#11D1B8" d="M96 149h40v8H96z"/><path fill="#4A84B8" d="M32 149h56v42H32z"/></g><path fill-rule="evenodd" clip-rule="evenodd" fill="#838383" d="M209.5 22.4c.3-1.4-.6-2.9-2-3.2l-15.6-3.5-15.6-3.5c-1.4-.3-2.9.6-3.2 2l-4 17.7c-.3 1.1.5 2.3 1.6 2.5l32.2 7.3c1.1.3 2.3-.5 2.5-1.6l4.1-17.7z"/><path fill-rule="evenodd" clip-rule="evenodd" fill="#FFF" stroke="#D7DFE3" stroke-miterlimit="10" d="M204.9 33.1l-32.3-7.3 4.9-21.6c.2-1.1 1.3-1.8 2.4-1.5l28.4 6.4c1.1.2 1.8 1.3 1.5 2.4l-4.9 21.6z"/><path fill-rule="evenodd" clip-rule="evenodd" fill="#4A84B8" d="M189.1 27.9L173.6 13c-.2.3-.4.5-.5.9L169 32.1c-.3 1.1.5 2.3 1.6 2.5l32.2 7.3c1.1.3 2.3-.5 2.5-1.6l4.1-18.2c.1-.5 0-.9-.1-1.3l-20.2 7.1z"/><path fill="#F18573" d="M195 13.3l1.1.2-1.7 4.1c-.1.3-.4.9-.2 1.3.3.4 1 .3 1.4.2 1-.3 1.6-1.3 1.8-2.3.7-2.4-.3-4.5-2.6-5.5-2.2-.9-4.7-.8-6.6.9-1.7 1.5-2.5 4.2-1.7 6.4.9 2.4 4 3.8 6.4 3.3l.1 1.6c-2.9.7-6.5-.9-7.9-3.5-1.4-2.7-.7-6.3 1.3-8.5 2.2-2.4 5.6-2.9 8.6-1.8 3.1 1.1 5 4 4.2 7.3-.4 1.7-1.6 3.1-3.3 3.6-1.5.5-4.3.2-3.6-2h-.1c-.9.8-2.4 1.7-3.6.9-1.2-.8-1-2.4-.5-3.5.5-1.2 1.4-2.3 2.6-2.9 1.2-.6 2.7-.5 3.5.7l.8-.5zm-1.4 1.7c-1.2-1.6-3.2.2-3.6 1.5-.2.6-.3 1.6.6 1.7.8.1 1.7-.6 2.1-1.2l.9-2z"/><path fill-rule="evenodd" clip-rule="evenodd" fill="#838383" d="M109.3 36.2c-.3-2.7-2.8-4.7-5.5-4.4L74 35l-29.8 3.3c-2.7.3-4.7 2.8-4.4 5.5l3.7 33.8c.2 2.2 2.2 3.8 4.4 3.5l61.6-6.7c2.2-.2 3.8-2.2 3.5-4.4l-3.7-33.8z"/><path fill-rule="evenodd" clip-rule="evenodd" fill="#FFF" stroke="#D7DFE3" stroke-miterlimit="10" d="M107.4 55l-61.8 6.8-5.1-46.2c-.1-1.1.7-2.1 1.8-2.2L100.1 7c1.1-.1 2.1.7 2.2 1.8l5.1 46.2z"/><path d="M48.838 19.596l38.074-4.163.544 4.97-38.074 4.164zm1.026 8.952l46.424-5.076.544 4.97-46.425 5.077zm.97 8.992l35.29-3.858.545 4.97-35.29 3.86z" fill="#838383"/><path fill-rule="evenodd" clip-rule="evenodd" fill="#F18573" d="M76.5 58.4L40 41.4c-.2.6-.3 1.2-.3 1.9l3.8 34.8c.2 2.2 2.2 3.8 4.4 3.5l61.6-6.7c2.2-.2 3.8-2.2 3.5-4.4l-3.8-34.8c-.1-.9-.5-1.6-1-2.3l-31.7 25z"/></svg>