<svg xmlns="http://www.w3.org/2000/svg" xmlns:xlink="http://www.w3.org/1999/xlink" viewBox="0 0 519 96">
  <defs>
    <path id="a" d="M0 125.913h540v-125H0z"/>
  </defs>
  <g fill="none" fill-rule="evenodd">
    <g transform="translate(-11 -9.407)">
      <g fill="#F6B94B">
        <path d="M53.16 63.37l18.726 11.313V51.917l-12.933 7.91-5.794 3.542zm-9.35 5.717l-1.885 1.152-1.887-1.16-5.874-3.6-22.09 13.34c.515 2.8 2.96 4.93 5.913 4.93h47.877c2.952 0 5.398-2.13 5.912-4.94l-22.09-13.34-5.875 3.59zM30.693 63.37L11.965 74.682V51.917l12.93 7.91 5.797 3.542z"/>
        <path d="M65.864 41.207H17.987a6.023 6.023 0 0 0-6.022 6.023v.652l14.815 9.063 15.144 9.26 15.145-9.26 14.81-9.065v-.65a6.023 6.023 0 0 0-6.03-6.02"/>
      </g>
      <path fill="#38C1C9" d="M148.268 58.768h33.99L170.105 46.81a2.207 2.207 0 0 1 0-3.156A2.278 2.278 0 0 1 171.71 43c.58 0 1.16.218 1.603.654l16.02 15.765c.106.1.203.22.286.34.03.05.06.11.09.16.04.07.08.14.11.22.03.07.05.15.07.22.02.06.04.12.06.19a2.18 2.18 0 0 1 0 .87l-.06.19c-.02.08-.04.15-.07.22l-.12.22-.09.16a2.187 2.187 0 0 1-.29.34l-16.01 15.78a2.294 2.294 0 0 1-3.21 0 2.207 2.207 0 0 1 0-3.16l12.15-11.96h-33.99c-1.26 0-2.27-1-2.27-2.234 0-1.23 1.01-2.23 2.26-2.23z"/>
      <mask id="b" fill="#fff">
        <use xlink:href="#a"/>
      </mask>
      <path fill="#CECECE" d="M318.822 37.454h47.068v-2.76h-47.068v2.76zm26.362 7.625h20.706v-2.76h-20.706v2.76zm0 7.34h20.706v-2.76h-20.706v2.76zm0 7.46h20.706v-2.76h-20.706v2.76zm0 8.03h20.706v-2.76h-20.706v2.76zm-.09 11.86H365.8v-2.76h-20.706v2.76zm0 7.46H365.8v-2.76h-20.706v2.76zM318.82 45.08h20.707v-2.76H318.82v2.76zm0 7.34h20.707v-2.76H318.82v2.76zm0 7.467h20.707v-2.76H318.82v2.76zm0 8.032h20.707v-2.76H318.82v2.76zm49.546-46.29l-3.763 3.31h-.127l-3.76-3.32-3.76-3.32-3.766 3.31-3.733 3.29.027.02h-.053l.03-.02-3.73-3.296-3.76-3.313-3.76 3.316-3.73 3.293.03.02h-.05l.03-.02-3.73-3.294L327 18.3l-3.76 3.315-3.76 3.316-.068-.09h.05l-3.76-3.31-3.76-3.31v85l3.76-3.313 3.76-3.32h.13l3.76 3.313 3.76 3.31 3.763-3.31 3.73-3.29-.024-.028h.06l-.03.028 3.74 3.29 3.766 3.313 3.76-3.314 3.733-3.29-.023-.02h.05l-.024.02 3.734 3.29 3.764 3.31 3.76-3.31 3.76-3.316.064.1h-.05l3.76 3.316 3.767 3.31v-85l-3.77 3.317z" mask="url(#b)"/>
      <path fill="#F27473" d="M345.095 79.777H365.8v-2.76h-20.705zm.09-27.357h20.705v-2.76h-20.706z" mask="url(#b)"/>
      <path fill="#F6B94B" d="M292.665 67.677l-5.86 3.593-1.88 1.152-1.883-1.152-5.857-3.593-22.027 13.345c.51 2.806 2.95 4.935 5.894 4.935h47.26v-8.802l-15.647-9.478zm9.24-5.668l-5.777 3.54 12.185 7.38V58.08zm-33.963 0l-12.894-7.91v22.76l18.675-11.32z" mask="url(#b)"/>
      <path fill="#F6B94B" d="M285.636 27.258l-30.59 22.807 29.877 18.323 23.39-14.345v-9.055z" mask="url(#b)"/>
      <path fill="#F27473" fill-opacity=".2" d="M345.54 79.116l72.12 26.228 106.97-23.34-158.83-4.99z" mask="url(#b)"/>
      <path fill="#F1F1F1" d="M529.636 99.21c0 3.312-2.703 6.022-6.006 6.022H419.038c-3.303 0-6.006-2.71-6.006-6.023V87.66c0-3.313 2.703-6.023 6.006-6.023H523.63c3.303 0 6.006 2.71 6.006 6.022v11.55z" mask="url(#b)"/>
    </g>
    <text fill="#666" font-family="PTSans-Regular, PT Sans" font-size="9" transform="translate(-11 -10)">
      <tspan x="432.795" y="97.139">Order Total $825.39</tspan>
    </text>
    <path fill="#F27473" fill-opacity=".2" d="M334.22 40.597l71.69-39.53 107.72 38.4-158.74 3.545z"/>
    <path fill="#F1F1F1" d="M517.758 33.318c0 3.313-2.703 6.024-6.006 6.024H407.16c-3.303 0-6.005-2.71-6.005-6.024V6.714c0-3.313 2.702-6.024 6.005-6.024h104.593c3.303 0 6.006 2.71 6.006 6.024v26.604z"/>
    <path fill="#666" d="M417.963 16.632c.003.597.504 1.097 1.094 1.088a1.106 1.106 0 0 0 1.076-1.11c-.012-.585-.504-1.072-1.082-1.07a1.092 1.092 0 0 0-1.08 1.092m8.93 11.996c3.64 0 6.61-2.982 6.61-6.635 0-3.646-2.95-6.62-6.61-6.648-3.61-.027-6.61 2.984-6.62 6.632 0 3.677 2.96 6.65 6.62 6.65m-18.09-6.28v-2.63c.06-.49.09-.986.18-1.467.21-1.047.42-2.098.71-3.124.22-.747.7-1.018 1.48-1.02h4.58v-1.15h4.55v1.15c.61 0 1.2-.007 1.78.005.18.01.26-.05.33-.2.36-.72.72-1.44 1.1-2.16.36-.68.77-1.33 1.51-1.67h3.85c.7.32 1.11.92 1.46 1.57.385.73.745 1.48 1.135 2.2a.536.536 0 0 0 .338.25c1.25.21 2.21.83 2.81 1.95.19.36.3.77.44 1.16v11.22c-.23.74-.7 1.24-1.452 1.46h-17.37v-1.9c0-.61.007-1.22-.004-1.83-.008-.41-.326-.66-.7-.56-.27.07-.4.26-.4.63v3.67h-4.37c-.64-.18-.93-.68-1.114-1.27-.075-.25-.156-.5-.223-.75-.425-1.63-.444-3.31-.528-4.98-.01-.18-.037-.35-.056-.53"/>
    <path fill="#666" d="M421.594 21.955a5.327 5.327 0 0 1 5.338-5.335c2.958 0 5.306 2.39 5.304 5.394-.003 2.95-2.396 5.295-5.404 5.29-2.87-.004-5.24-2.424-5.238-5.35"/>
    <text fill="#666" font-family="PTSans-Regular, PT Sans" font-size="9" letter-spacing="-.36" transform="translate(-11 -10)">
      <tspan x="454.692" y="25.634">“</tspan> <tspan x="457.032" y="25.634" letter-spacing="-.153">C</tspan> <tspan x="461.865" y="25.634">anon</tspan> <tspan x="480.999" y="25.634" letter-spacing=".279"> </tspan> <tspan x="483.681" y="25.634" letter-spacing="-.432">R</tspan> <tspan x="488.172" y="25.634">ebel T3i”</tspan>
    </text>
    <text fill="#666" font-family="PTSans-Regular, PT Sans" font-size="9" transform="translate(-11 -10)">
      <tspan x="454.692" y="36.477">$500</tspan>
    </text>
  </g>
</svg>
