<svg xmlns="http://www.w3.org/2000/svg" id="Layer_1" data-name="Layer 1" viewBox="0 0 277.58 203.5">
  <defs>
    <style>
      .folder-1{fill:#d7dfe3;}.folder-2{fill:#4a84b8;}.folder-3{fill:#f18573;}.folder-4{fill:#11d1b8;}.folder-5{fill:#fff;stroke:#d7dfe3;stroke-miterlimit:10;stroke-width:2px;}.folder-6{fill:#f39424;}.folder-7{fill:#4cbcc5;}.folder-8{fill:#065981;}
    </style>
  </defs>
  <path id="folderBack" d="M255.08 16h-134.4v-4.75c0-6.46-5-11.25-11.61-11.25h-44.8c-6.58 0-11.59 4.79-11.59 11.25V16H32.46C24 16 16.68 22.72 16.68 31v24h253V31c0-8.28-6.17-15-14.6-15z" class="folder-1"/>
  <g id="folderInside">
    <rect id="document" width="222.5" height="136.15" x="36.99" y="23.94" class="folder-2" rx="12" ry="12" transform="rotate(3.86 148.23 92.006)"/>
    <rect id="document-2" width="222.5" height="128.46" x="31.68" y="26" data-name="document" class="folder-3" rx="12" ry="12"/>
    <rect id="documentUnroll" width="231.59" height="144.74" x="11.48" y="29.93" class="folder-4" rx="12" ry="12" transform="rotate(-13.94 127.26 102.273)"/>
  </g>
  <path id="folderFront" d="M267.57 43h-249a9.15 9.15 0 0 0-9 9.62l5.08 135a15.2 15.2 0 0 0 15 14.84h225.72a15.2 15.2 0 0 0 15-14.71l6.21-135.1a9.15 9.15 0 0 0-9.01-9.65z" class="folder-5"/>
  <g id="Logo">
    <path d="M197.82 93.8a13 13 0 0 0-12.46-13H179l-25.28 26.14h31.69a13 13 0 0 0 12.41-13.14" class="folder-6"/>
    <path d="M153.68 107v18c0 9.36-3 17-12.39 17s-12.39-7.63-12.39-17V88.62a1.07 1.07 0 0 0-.07-.5V88a14 14 0 0 0-14-12.82 9.65 9.65 0 0 0-1.44.07 14.09 14.09 0 0 0-12.82 13.32V125c0 25 15.7 45.37 40.69 45.37 24.7 0 40.18-19.8 40.69-44.43V107z" class="folder-7"/>
    <path d="M182.05 120.88V107h-28.37z" class="folder-8"/>
  </g>
</svg>
