
<svg xmlns="http://www.w3.org/2000/svg" viewBox="0 0 416 231">
  <g fill="none" fill-rule="evenodd">
    <ellipse cx="83.261" cy="20.687" fill="#D7DFE3" rx="82.96" ry="20.536" transform="translate(127.195 140.83)" opacity=".3"/>
    <path fill="#FFF" d="M29.56 229.494c-3.613 0-6.624-2.41-7.377-5.722L2.16 134.322c-.3-1.355 0-2.86.905-3.915.903-1.054 2.107-1.656 3.462-1.656h111.4c2.41 0 4.818 1.66 5.72 4.22 3.464 9.19 18.67 24.7 82.95 24.7 65.034 0 81.142-15.66 84.905-25.15.903-2.26 3.162-3.76 5.57-3.76h112.455c1.355 0 2.56.61 3.462 1.66.9 1.06 1.2 2.41 1.05 3.77l-16.86 89.45c-.61 3.47-3.77 5.87-7.38 5.87H29.56z"/>
    <path fill="#D7DFE3" d="M409.376 130.106c1.205 0 1.957.753 2.258 1.054.602.753.904 1.656.753 2.56l-16.86 89.45c-.452 2.71-3.01 4.668-5.872 4.668H29.56c-2.86 0-5.27-1.958-5.87-4.67L3.666 134.022c-.15-.902 0-1.956.602-2.71.3-.45 1.053-1.204 2.257-1.204h111.4c1.807 0 3.614 1.355 4.216 3.162 8.28 22.287 56.46 25.75 84.31 25.75 28.3 0 77.08-3.312 86.41-26.05.76-1.657 2.41-2.862 4.07-2.862h112.45zm.15-3.012H297.073c-3.01 0-5.72 1.958-6.925 4.668-3.312 8.132-18.065 24.094-83.55 24.094-64.28 0-78.432-15.51-81.443-23.792-1.054-3.012-3.914-5.12-7.076-5.12H6.52c-3.915 0-6.775 3.764-5.872 7.53l20.18 89.446c.902 4.066 4.515 6.927 8.88 6.927h360.096c4.365 0 8.13-2.862 8.882-7.23l16.86-89.448c.603-3.62-2.258-7.08-6.02-7.08z"/>
    <path fill="#838383" d="M151.198 178.444h5.42v27.408h-5.42m19.72-14.306l-2.107-4.367h-.15l.61 4.36v14.3h-5.12v-27.55h3.92l10.39 14.61 2.11 4.21h.15l-.6-4.22v-14.45h5.12V206h-3.91m29.35-21.232c0 3.17-1.8 5.57-4.81 6.33v.3c2.71.457 4.97 2.11 5.57 4.97.61 2.71-.3 5.57-2.41 7.38-2.25 1.81-5.26 2.41-8.12 2.41-2.86 0-5.87 0-8.58-.6V178.6c5.42-.904 18.366-2.56 18.366 6.173zm-11.59 5.12c.76 0 1.66 0 2.41-.15 2.41-.75 4.97-3.31 3.01-5.87-1.5-1.96-5.12-1.65-7.22-1.2v7.23h1.81zm1.81 11.75c2.56 0 5.27-1.35 5.12-4.21-.15-3.014-3.16-3.616-5.72-3.616h-2.86v7.53c.91.45 2.41.3 3.47.3zm15.96-9.482c0-4.97 1.36-10.692 6.18-13.1 4.67-2.41 11.44-1.356 14.605 3.16 3.16 4.52 3.31 11.898 1.505 17.018-1.807 4.97-6.323 7.53-11.59 7.08-7.676-.453-10.686-7.38-10.686-14.157zm5.57 0c0 4.367 1.66 10.54 7.23 9.337 4.22-.904 4.82-5.873 4.67-9.337 0-4.218-1.35-10.24-6.77-9.49-4.364.606-5.12 5.726-5.12 9.49zm28.15-.3l-7.67-13.404h6.477l4.215 7.98.9 2.71.903-2.71 4.367-7.98h5.87l-7.98 13.25 8.28 14.158h-6.33l-4.82-8.432-1.057-2.863-1.056 2.864-4.82 8.43h-5.87"/>
    <path fill="#FFF" d="M167.92 43.435c-.3 0-.603 0-.905-.15-9.653-1.51-20.212-2.266-31.524-2.266-18.7 0-32.88 2.11-33.03 2.11h-.45c-1.96-.3-3.01-1.51-3.01-2.87.46-4.38 1.81-12.99 6.64-21.14 6.19-10.27 15.69-16 28.21-17.06 1.36-.15 2.72-.15 4.08-.15 10.56 0 18.858 3.47 24.89 10.57 7.24 8.6 9.2 20.99 7.846 28.69-.15 1.36-1.36 2.26-2.715 2.26z"/>
    <path fill="#D7DFE3" d="M137.904 3.42c28.206 0 33.033 26.425 31.223 37.448-.15.604-.603 1.057-1.207 1.057-.15 0-.3 0-.603-.15-11.01-1.662-22.022-2.266-31.826-2.266-19 0-33.33 2.11-33.33 2.11s-1.81-.3-1.66-1.21c.76-7.7 5.13-34.58 33.49-36.85 1.36-.15 2.72-.15 3.92-.15zm0-3.02c-1.357 0-2.715 0-4.223.15-12.97 1.058-23.07 7.25-29.41 17.82-4.98 8.304-6.33 17.213-6.79 21.743-.15 2.265 1.51 4.077 4.23 4.53h1.06c.15 0 14.33-2.114 32.89-2.114 11.16 0 21.57.75 31.07 2.11.45.15.91.15 1.36.15 2.12 0 3.93-1.51 4.23-3.47 1.36-8.16-.6-20.99-8.29-29.9C157.81 4.17 148.92.4 137.9.4z"/>
    <path fill="#FFF" d="M137.904 4.93c9.654 0 17.195 3.17 22.475 9.513 6.93 8.305 8.14 19.932 7.24 25.972h-.16c-9.81-1.51-20.52-2.265-32.13-2.265-17.5 0-31.08 1.812-33.19 2.114-.15 0-.15 0-.3-.15.9-8.306 5.58-32.768 31.97-34.882 1.66-.302 2.86-.302 4.07-.302zm0-1.51c-1.207 0-2.564 0-3.922.15-28.206 2.266-32.73 29.144-33.485 36.845-.15.906 1.66 1.208 1.66 1.208s14.328-2.114 33.334-2.114c9.81 0 20.82.6 31.83 2.26.15.15.3.15.61.15.61 0 1.06-.45 1.21-1.06 1.96-11.03-3.01-37.45-31.22-37.45z"/>
    <path fill="#D7DFE3" d="M122.066 38.3c8.9-.452 20.212-.603 31.977.303-.603-8.305-7.54-14.95-15.988-14.95-8.296.152-15.235 6.494-15.99 14.648z" opacity=".3"/>
    <path fill="#FFF" d="M252.992 43.435c-1.358 0-2.564-.906-2.715-2.265-1.358-7.852.603-20.083 7.843-28.69 5.883-6.946 14.33-10.57 24.888-10.57 1.358 0 2.715 0 4.073.15 12.52 1.058 22.03 6.796 28.21 17.064 4.83 8.003 6.19 16.61 6.64 21.14.15 1.36-1.05 2.567-3.01 2.87h-.45c-.15 0-14.33-2.115-33.03-2.115-11.31 0-21.87.75-31.52 2.26-.3.15-.6.15-.9.15z"/>
    <path fill="#D7DFE3" d="M283.008 3.42c1.207 0 2.564 0 3.922.15 28.206 2.266 32.73 29.144 33.485 36.845.15.906-1.66 1.208-1.66 1.208s-14.328-2.114-33.334-2.114c-9.8 0-20.81.6-31.82 2.26-.15.15-.3.15-.6.15-.6 0-1.05-.45-1.2-1.06-1.81-11.03 3.02-37.45 31.23-37.45zm0-3.02c-10.86 0-19.91 3.775-25.944 11.023-7.54 8.91-9.653 21.744-8.296 29.898.302 2.12 2.112 3.48 4.224 3.48.452 0 .905 0 1.357-.15 9.5-1.51 19.91-2.11 31.07-2.11 18.55 0 32.73 2.12 32.88 2.12h1.05c2.71-.45 4.37-2.26 4.22-4.53-.46-4.53-1.81-13.44-6.79-21.74C310.46 7.8 300.35 1.61 287.38.55 285.722.4 284.367.4 283.01.4z"/>
    <path fill="#FFF" d="M283.008 4.93c1.207 0 2.564 0 3.77.15 26.397 2.115 31.224 26.728 31.978 34.882 0 0-.15 0-.302.15-2.11-.3-15.837-2.113-33.183-2.113-11.46 0-22.32.75-32.12 2.26H253c-.907-6.04.3-17.67 7.24-25.97 5.58-6.19 13.12-9.36 22.774-9.36zm0-1.51c-28.206 0-33.033 26.425-31.223 37.448.15.604.603 1.057 1.207 1.057.15 0 .3 0 .603-.15 11.01-1.662 22.022-2.266 31.826-2.266 19.01 0 33.34 2.11 33.34 2.11s1.81-.3 1.66-1.21c-.75-7.7-5.13-34.58-33.48-36.85-1.35-.15-2.71-.15-3.92-.15z"/>
    <path fill="#D7DFE3" d="M298.846 38.3c-8.9-.452-20.212-.603-31.977.303.6-8.305 7.54-14.95 15.98-14.95 8.44.152 15.23 6.494 15.99 14.648z" opacity=".3"/>
    <g fill="#F18573" transform="translate(69.877 77.41)" opacity=".3">
      <ellipse cx="15.687" cy="9.664" rx="15.084" ry="9.664"/>
      <ellipse cx="261.398" cy="9.664" rx="15.084" ry="9.664"/>
    </g>
  </g>
</svg>
