<svg xmlns="http://www.w3.org/2000/svg" viewBox="0 0 395 453" xmlns:xlink="http://www.w3.org/1999/xlink">
  <defs>
    <path id="a" d="M30.07 0h246.178c1.657 0 3 1.343 3 3v284.952L0 238.712v-77.42l1.58.28L30.07 0zM.335 1.62L0 3.523V3c0-.498.12-.967.336-1.38z"/>
  </defs>
  <g fill="none" fill-rule="evenodd">
    <path fill="#D7DFE3" fill-rule="nonzero" d="M24.3 73H28v22h-3.7c-1.1 0-2.3-.6-2.3-1.7V74.7c0-1.1 1.2-1.7 2.3-1.7zm0 56H28v36h-3.7c-1.1 0-2.3-.7-2.3-1.8v-32.5c0-1.1 1.2-1.7 2.3-1.7zm0 50H28v36h-3.7c-1.1 0-2.3-.7-2.3-1.8v-32.5c0-1.1 1.2-1.7 2.3-1.7zM389 129h3.7c1.1 0 2.3.6 2.3 1.7v32.5c0 1.1-1.2 1.8-2.3 1.8H389v-36z"/>
    <path fill="#E2EAED" fill-rule="nonzero" d="M52 150h314v302H52"/>
    <path fill="#FFF" fill-rule="nonzero" d="M359.7 108.5H58c-3.3 0-6 2.7-6 6v39h314v-38.7c0-3.4-2.9-6.3-6.3-6.3z"/>
    <path fill="#979797" fill-rule="nonzero" d="M80.5 129h-1.9c-.2 0-.5-1.3-.9-1.9l1.3-1.2c.1-.1.1-.3 0-.4l-1.6-1.6c-.1-.1-.4-.1-.5 0l-1.1 1.3c-.7-.4-1.9-.7-1.9-.9v-1.9c0-.2-.7-.4-.9-.4h-2.2c-.2 0-.9.2-.9.4v1.9c0 .2-1.3.5-1.9.9l-1.3-1.4c-.1-.1-.3-.1-.4 0l-1.6 1.6c-.1.1-.1.4 0 .5l1.4 1.2c-.4.6-.7 1.9-.9 1.9h-2c-.2 0-.4.6-.4.8v2.2c0 .2.2.9.4.9h2c.2 0 .5 1.3.9 1.9l-1.4 1.3c-.1.1-.1.3 0 .4l1.6 1.6c.1.1.4.1.5 0l1.1-1.4c.7.4 1.9.7 1.9.9v1.9c0 .2.7.4.9.4h2.2c.2 0 .9-.2.9-.4v-1.9c0-.2 1.2-.5 1.9-.9l1.2 1.3c.1.1.3.1.4 0l1.6-1.6c.1-.1.1-.4 0-.5l-1.3-1.1c.4-.7.7-1.9.9-1.9h1.9c.2 0 .5-.7.5-.9v-2.2c.1-.2-.2-.8-.4-.8zm-8.5 5.3c-1.8 0-3.3-1.5-3.3-3.3 0-1.8 1.5-3.3 3.3-3.3 1.8 0 3.3 1.5 3.3 3.3 0 1.8-1.4 3.3-3.3 3.3zm239.7-9.6l4.4 4.4-5.7 5.7-3 3c-.5.5-1.1.6-1.9.8-1.5.4-3.1.8-4.6 1.2.3-1.3.7-2.6 1-3.9.2-.8.3-1.7.8-2.4.7-1 1.8-1.8 2.6-2.6l3.9-3.9c.9-.7 1.7-1.5 2.5-2.3zm6.9 0c-.8-.8-1.6-1.7-2.4-2.4-1.3-1.1-2.4.3-3.3 1.2l4.1 4.4v-.3c0 .3.4.3.7.4.2-1.1 2.3-1.9.9-3.3z"/>
    <g fill="#979797" fill-rule="nonzero">
      <path d="M353.1 122.1h-13.4c-.8 0-1.5.7-1.5 1.5v.8h10.5c1 0 1.8.8 1.8 1.8v12l1.4 1.8h1.2c.8 0 1.5-.7 1.5-1.5v-15c0-.7-.7-1.4-1.5-1.4z"/>
      <path d="M349.2 127.4c0-.9-.8-1.7-1.7-1.7h-12.8c-.9 0-1.7.8-1.7 1.7v11.1c0 .9.8 1.7 1.7 1.7h15.8l-1.3-1.7v-11.1zm-14.1 6.1v-3.9h6.4v4.8h-6.4v-.9zm12 4.9h-11.9v-.9h11.9v.9zm0-2h-11.9v-.9h11.9v.9zm0-1.9h-4.5v-.9h4.5v.9zm0-2h-4.5v-.9h4.5v.9zm0-1.9h-4.5v-.9h4.5v.9zm0-2.1h-11.9v-.9h11.9v.9z"/>
    </g>
    <path fill="#979797" fill-rule="nonzero" d="M154.4 131.9l-.8-1.7h-.1l.2 1.7v5.5h-1.9v-10.6h1.5l4 5.6.8 1.6h.1l-.2-1.6v-5.5h2v10.6h-1.5l-4.1-5.6zm7.7-5.1h6.2v1.8h-4.2v2.4h3.8v1.8h-3.8v2.6h4.2v1.8H162v-10.4h.1zm11 5.9l.2 1.9h.1l.2-1.9 1.8-5.8h1.4l1.8 5.9.2 1.9h.1l.2-1.9 1.3-5.8h2.1l-2.9 10.6h-1.4l-1.9-5.8-.3-1.8h-.1l-.3 1.6-1.9 5.8h-1.5l-2.9-10.6h2.2l1.6 5.9zm14.5-5.9h6.2v1.8h-4.2v2.4h3.8v1.8h-3.8v2.6h4.2v1.8h-6.3v-10.4h.1zm16.4 5.1l.2-2.1h-.1l-.6 1.7-2.2 3.9h-.7l-2.4-3.9-.7-1.7h-.1l.3 2.1v5.5h-1.9v-10.5h1.9l2.8 4.8.5 1.2h.1l.5-1.2 2.7-4.8h1.9v10.5H204v-5.5zm9.5 3.1h-3.2l-.8 2.3h-2.1l3.8-10.6h1.5l3.8 10.6h-2.2l-.8-2.3zm-2.7-1.6h2.2l-.8-2.3-.3-1.6h-.1l-.3 1.7-.7 2.2zm7.3-6.6h2.1v10.5h-2.1v-10.5zm11.1 10.5h-6.6v-10.5h2.1v8.7h4.6v1.8h-.1zm6.1-2.8c0-1.3-2.1-1.7-3-2.1-1.3-.7-2-1.9-1.8-3.3.4-2.8 4.6-3 6.6-1.8l-.6 1.7c-.8-.5-4.7-1.1-3.8.9.3.7 1.3 1 2 1.3.9.4 1.8.9 2.3 1.7.9 1.5.2 3.6-1.4 4.3-1.5.7-3.9.5-5.3-.2l.7-1.8c.9.5 4.3 1.3 4.3-.7zm10.6 6.1c-3.5-3.6-3.3-10.4 0-14l1.3.8c-2.5 3.3-2.6 9 0 12.3l-1.3.9zm2.9-5.8c0-1.3.8-2.2 1.8-2.8-2.7-1.7-1.6-5.4 1.6-5.4 3.1 0 4 3.5 1.5 5.2.9.6 1.7 1.3 1.8 2.5.1 1.2-.4 2.2-1.4 2.8-2 1.1-5.3.3-5.3-2.3zm4.8-.2c0-1-1.1-1.5-1.8-2-1 .6-1.8 2-.7 2.9.8.8 2.5.4 2.5-.9zm-2.7-5.2c0 1 .9 1.4 1.6 1.8.7-.6 1.4-1.9.5-2.6-.7-.7-2.1-.3-2.1.8zm9.2 6.4c1.2 0 2.2-.8 2-2.1-.2-1.2-1.3-1.5-2.4-1.5h-1.2v-5.5h5.2v1.8h-3.5v2l.6-.1c2.6.1 4 2.9 2.8 5.2-1.1 1.9-4 2.2-5.8 1.3l.5-1.6c.6.4 1.2.5 1.8.5zm7.1-9.2c3.5 3.6 3.3 10.3 0 14l-1.3-.8c2.5-3.4 2.6-8.9 0-12.3l1.3-.9z"/>
    <path fill="#F0F6F7" fill-opacity=".6" fill-rule="nonzero" d="M336.6 204H81.4v-25c0-1.1.9-2 2-2h251.2c1.1 0 2 .9 2 2v25z"/>
    <path fill="#F2F8F9" fill-rule="nonzero" d="M342 204H76v-18c0-1.1.9-2 2-2h262c1.1 0 2 .9 2 2v18z"/>
    <path fill="#FFF" fill-rule="nonzero" d="M350 452H68V194c0-1.1.9-2 2-2h278c1.1 0 2 .9 2 2v258z"/>
    <g transform="rotate(-10 1243.365 110.56)">
      <use fill="#FFF" xlink:href="#a"/>
      <path stroke="#D7DFE3" d="M30.488.5L1.985 162.15.5 161.888v76.406l278.248 49.062V3c0-1.38-1.12-2.5-2.5-2.5H30.488zM-.157 1.533l-.335 1.903.992.087V3c0-.406.097-.798.28-1.15l-.444-.23-.493-.087z"/>
    </g>
    <path fill="#F0D2AF" d="M117.173 368.774c.525-.093.718-.532.637-.99-1.375-7.798-8.033-13.718-16.822-12.168-8.79 1.55-12.493 9.702-11.315 16.385.786 4.46 3.817 8.99 8.836 11.76 5.01 2.77 9.2 5 9.47 6.57.26 1.51-.22 2.2-1.14 2.37-1.58.28-3.19-2.34-3.91-4.92-.17-.58-.48-.79-.94-.71l-8.98 2.06c-.53.1-.73.47-.67.8 1.84 10.49 7.71 16.88 17.68 15.13 8.59-1.52 12.6-9.45 11.05-18.23-.86-4.85-4.9-9-9.68-11.13-4.41-1.99-7.91-3.81-8.28-5.9-.12-.65.12-1.24.77-1.35.91-.16 1.71.51 2.38 2.01.22.5.52.65.91.58l9.95-2.22zm28.974 29.684l-11.15 1.966c-.46.08-.99-.23-1.08-.755l-6.032-34.21c-.08-.46-.533-.72-.992-.64l-6.56 1.15c-.393.07-.944-.38-1.014-.77l-2.06-11.67c-.07-.4.08-.69.47-.76l28.07-4.95c.46-.08.9.11.99.63l2.03 11.53c.09.52-.24.98-.76 1.08l-6.56 1.15c-.46.08-.73.46-.63 1.05l6.02 34.14c.08.46-.25.92-.77 1.01zm8.455-52.16l12.79-2.256c.46-.08.858.254 1.004.7l17.248 45.265c.258.698.057 1.477-.665 1.604l-10.63 1.88c-.4.07-.84-.12-.97-.5l-3.05-9.59c-.13-.31-.42-.46-.75-.41l-3.54.63c-.27.05-.48.36-.48.76l.45 9.86c.01.47-.4.82-.73.87l-10.81 1.9c-.59.11-1-.3-.99-.97l.46-48.79c.01-.34.25-.85.65-.92zm13.336 29.604l-1.96-6.14c-.294-.894-.53-1.46-.726-1.426-.197.034-.247.516-.194 1.588l.245 6.375c-.008.33.18.64.51.58 2.098-.37 2.295-.41 2.125-.99zm19.175 14.387c.093.52.425.87.818.8l9.98-1.76c.46-.08.79-.55.7-1l-2.04-11.6c-.11-.66-.03-.94.17-.98.2-.04.51.18.75.81l4.97 11.28c.14.38.58.57.84.53l12.27-2.17c.46-.08.66-.52.57-.98l-8.35-47.37c-.08-.46-.49-.86-1.01-.77l-9.84 1.73c-.46.08-.71.53-.63.99l2.58 14.61c.11.59-.05.88-.24.92-.13.02-.37-.21-.6-.71l-6.54-14.04c-.22-.5-.6-.71-1.06-.63l-11.08 1.95c-.39.07-.65.52-.57.98l8.35 47.38zm44.833-6.96l-12.267 2.16c-.53.09-.85-.19-.93-.65l-8.35-47.37c-.1-.53.15-1.04.68-1.14l11.74-2.07c10.43-1.84 17.76 3.69 19.86 15.61l2.15 12.18c1.87 10.61-2.73 19.46-12.89 21.25zm.248-15.86l-3.362-19.07c-.115-.66-.405-1.15-.856-1.41-.297-.15-.857-.26-1.184-.2-.263.04-.36.26-.29.66l3.836 21.75c.07.39.223.5.486.45.393-.07 1.705-.3 1.37-2.2z"/>
    <path fill="#E9A89F" d="M85.383 349.47c.075.427.462.744.837.678l8.825-1.556c.267-.047.434-.352.387-.62l-2.468-13.996c-.038-.214.03-.447.3-.494l1.23-.217c.213-.037.357.157.395.37l2.45 13.945c.04.267.31.55.58.503l9.09-1.603c.26-.048.37-.396.32-.664l-6.88-39c-.05-.267-.3-.443-.62-.386l-9.04 1.593c-.27.048-.39.29-.34.557l2.46 13.944c.02.16-.15.41-.42.46l-1.07.187c-.22.04-.41-.09-.44-.3l-2.47-13.99c-.05-.26-.24-.4-.56-.34l-8.99 1.59c-.32.06-.5.31-.44.63l6.83 38.73zm21.76-15.46l-2.79-15.814c-1.46-8.28 3.022-13.203 8.96-14.25 5.936-1.047 11.83 2.046 13.29 10.326l2.79 15.814c1.45 8.228-3.085 13.16-8.968 14.196-5.884 1.038-11.822-1.992-13.282-10.273zm7.508-17.465l2.74 15.493c.14.802.52 1.342 1.1 1.24.59-.105.76-.74.61-1.54l-2.73-15.495c-.12-.694-.52-1.395-1.11-1.29-.59.103-.73.844-.6 1.592zm35.01 22.418c.43-.075.7-.452.63-.826l-4.91-27.835c-.08-.48.14-.795.51-.86l5.35-.944c.43-.075.69-.453.62-.88l-1.66-9.403c-.07-.427-.43-.584-.81-.518l-22.89 4.036c-.32.057-.44.3-.38.62l1.68 9.51c.06.32.51.68.83.624l5.35-.943c.37-.066.74.145.81.52l4.92 27.887c.08.43.51.69.88.62l9.1-1.6zm25.35-4.47l-10 1.764c-.42.075-.69-.154-.75-.528l-6.81-38.63c-.07-.43.13-.85.56-.93l9.58-1.69c8.51-1.5 14.49 3.01 16.2 12.73l1.76 9.93c1.53 8.65-2.22 15.87-10.51 17.33zm.21-12.926l-2.74-15.546c-.09-.53-.33-.93-.69-1.14-.24-.12-.7-.21-.97-.16-.21.04-.29.22-.23.54L173.7 323c.055.32.18.41.395.376.32-.058 1.39-.246 1.12-1.796zm12.33-1.732l-2.79-15.814c-1.46-8.28 3.03-13.2 8.96-14.24 5.94-1.04 11.83 2.05 13.29 10.33l2.79 15.82c1.45 8.23-3.08 13.16-8.96 14.2-5.88 1.04-11.82-1.99-13.28-10.27zm7.51-17.464l2.73 15.5c.15.8.52 1.34 1.1 1.24.59-.1.76-.74.62-1.54l-2.73-15.49c-.12-.69-.52-1.39-1.11-1.29-.58.11-.73.85-.6 1.6zm28.41 9.76c.04.22.17.3.27.29l.27-.04c.16-.02.24.13.27.29l.14.8c.23 1.29-.3 1.71-.89 1.81-.69.13-1.35-.47-1.64-2.13l-2.59-14.69c-.15-.85.16-1.29.64-1.38.43-.07.88-.04.96.44l.54 3.05c.1.54.54.84.91.78l9.61-2.13c.38-.06.48-.41.42-.79-2.63-14.95-11.67-13.36-13.76-12.99-8.98 1.59-11.06 8.89-9.31 18.83l1.1 6.25c2.1 11.86 7.25 16.68 15.11 15.3 8.24-1.45 10.08-9.16 9.16-14.34-.06-.374-.06-.65.26-.71l.91-.16c.16-.03.18-.25.14-.464L234.91 304c-.053-.32-.43-.58-.81-.52l-10.853 1.91c-.32.06-.88.32-.777.91l1.036 5.877z"/>
    <path fill="#F0D2AF" d="M77.28 298.434l-9.822-55.7c-.094-.536.145-.973.682-1.068l14.266-2.516c9.972-1.758 16.958 4.673 18.08 11.032.81 4.597 1.976 11.66-5.352 15.4l.027.154c5.15.91 9.27 5.475 10.33 11.452.69 3.907 2.86 16.64-13.02 19.438l-14.27 2.516c-.53.095-.83-.248-.91-.708zm5.826-47.24l1.73 9.806c.053.306.324.496.63.44 1.075-.188 2.104-1.08 1.833-2.613l-1.17-6.59c-.25-1.378-1.66-1.76-2.58-1.6-.31.056-.51.25-.46.556zm3.958 22.448l1.973 11.186c.054.306.248.51.63.44 1.23-.215 2.14-1.324 1.91-2.626l-1.418-8.045c-.23-1.303-1.52-1.866-2.75-1.65-.31.055-.42.31-.36.695zm20.446 2.477l-4-22.68c-2.093-11.88 4.334-18.94 12.848-20.44 8.514-1.5 16.967 2.93 19.06 14.81l4 22.67c2.08 11.8-4.423 18.87-12.86 20.36-8.437 1.49-16.954-2.86-19.048-14.73zm10.77-25.05l3.917 22.22c.202 1.15.734 1.92 1.578 1.77.844-.15 1.08-1.06.876-2.21l-3.91-22.22c-.17-1-.75-2-1.59-1.85-.84.14-1.05 1.21-.86 2.28zm26.65 35.43l-9.82-55.7c-.095-.54.144-.98.68-1.07l14.267-2.52c9.972-1.76 16.958 4.67 18.08 11.03.81 4.59 1.976 11.66-5.352 15.4l.027.15c5.143.91 9.27 5.47 10.323 11.45.69 3.9 2.855 16.64-13.022 19.44l-14.267 2.51c-.537.09-.834-.25-.915-.71zm5.827-47.24l1.73 9.8c.054.3.324.49.63.44 1.075-.19 2.104-1.09 1.834-2.62l-1.16-6.59c-.24-1.38-1.65-1.77-2.57-1.6-.3.05-.51.24-.45.55zm3.96 22.45l1.97 11.18c.055.3.25.51.632.44 1.22-.22 2.13-1.33 1.91-2.63l-1.42-8.05c-.23-1.3-1.52-1.87-2.75-1.65-.31.05-.42.31-.35.69zm64.862-28.19c.61-.11.84-.62.74-1.16-1.61-9.12-9.39-16.04-19.67-14.23-10.28 1.81-14.61 11.34-13.23 19.16.92 5.21 4.46 10.51 10.33 13.74 5.87 3.23 10.76 5.84 11.08 7.68.31 1.76-.26 2.57-1.33 2.76-1.84.32-3.73-2.74-4.58-5.75-.2-.68-.56-.93-1.1-.84l-10.49 2.4c-.62.1-.86.54-.79.92 2.16 12.26 9.01 19.74 20.67 17.68 10.05-1.77 14.74-11.05 12.93-21.32-1-5.67-5.73-10.52-11.31-13.02-5.16-2.33-9.25-4.456-9.68-6.908-.14-.77.14-1.45.9-1.586 1.07-.19 2 .597 2.79 2.355.26.59.61.76 1.07.68l11.64-2.602z"/>
    <path fill="#EFDD8B" d="M171.534 223.435c-.384.067-.496.324-.52.644l-.513 13.67c-.02.32.33.49.64.44l7.29-1.29c.31-.06.51-.25.61-.58l2.93-13.87c.09-.41-.14-.84-.6-.76l-9.82 1.73z"/>
    <path fill="#E5E5E5" d="M93.25 451.675l191.408-33.75 1.288 7.31-149.954 26.44h-42.74zm80.14 0l66.175-11.67 1.29 7.31-24.724 4.36h-42.74zM71.568 432.89l118.773-20.944 2.74 15.532L74.31 448.42l-2.74-15.53z"/>
    <path fill="#F18573" fill-rule="nonzero" d="M278.7 253.2l-125.6-18.6c-2.2-.3-3.7-2.4-3.4-4.5l4.7-31.7c.3-2.2 2.4-3.7 4.5-3.4l125.6 18.6c2.2.3 3.7 2.4 3.4 4.5l-4.7 31.7c-.3 2.2-2.3 3.7-4.5 3.4z"/>
    <path fill="#FFF" fill-rule="nonzero" d="M176.9 212.1l1.9.3-1 6.7c-.4 2.8-2.6 3.9-5.2 3.1-1.9-.6-2.8-2-2.5-4l1-7 2 .3-1 6.6c-.2 1.3.2 2.3 1.6 2.5 1.3.2 1.9-.7 2.1-1.9l1.1-6.6zm6.2 6l-.6-1.8h-.1v1.7l-.8 5.4-1.9-.3 1.5-10.5 1.5.2 3.1 6.1.6 1.7h.1V219l.8-5.5 1.9.3-1.5 10.5-1.5-.2-3.1-6zm12 4.5c.2-1.2-1.9-2-2.6-2.5-1.2-.9-1.7-2.1-1.2-3.6.9-2.7 4.9-2.3 6.8-.8l-.9 1.6c-.7-.6-4.5-1.8-3.9.3.2.7 1.2 1.2 1.8 1.6.8.5 1.7 1.1 2.1 2.1.7 1.6-.4 3.6-2 4-1.6.5-3.9 0-5.3-1l.9-1.6c.9.6 4.1 1.8 4.3-.1zm10.9-6.2l1.9.3-1 6.7c-.4 2.8-2.6 3.9-5.2 3.1-1.9-.6-2.8-2-2.5-4l1-7 2 .3-1 6.6c-.2 1.3.2 2.3 1.6 2.5 1.3.2 1.9-.7 2.1-1.9l1.1-6.6zm11.1 4.1c-.2 1.2-1 2-2.2 2.1v.1c2.2.7 2.5 3.6.6 4.8-1.7 1.1-4.7.5-6.5-.2l1.5-10.2c2.1 0 7.1.2 6.6 3.4zm-4.7 1.3c.3 0 .6.1.9.1.9-.1 1.9-.8 1.6-1.8-.3-1-1.9-1.1-2.8-1.1l-.4 2.7.7.1zm0 4.6c1 .2 2.2-.3 2.2-1.5 0-1-1.1-1.3-2-1.5l-1.1-.2-.4 2.8c.3.3.9.3 1.3.4zm10.9.3c.2-1.2-1.9-2-2.6-2.5-1.2-.9-1.7-2.1-1.2-3.6.9-2.7 4.9-2.3 6.8-.8l-.9 1.6c-.7-.6-4.5-1.8-3.9.3.2.7 1.2 1.2 1.8 1.6.8.5 1.7 1.1 2.1 2.1.7 1.6-.4 3.6-2 4-1.6.5-3.9 0-5.3-1l.9-1.6c.8.6 4 1.9 4.3-.1zm10.8 4.1c-1.6.8-4.1.2-5.4-.9-1.4-1.3-1.5-3.3-1.2-5.1.3-1.7 1.1-3.3 2.6-4.1 1.6-.8 3.8-.5 5.3.4l-.7 1.7c-.9-.6-2.4-.9-3.4-.4s-1.5 1.6-1.7 2.7c-.2 1.2-.2 2.6.6 3.5.9.9 2.5 1.1 3.7.6l.2 1.6zm3.5-9.6c1.9 0 5.1 0 6.2 1.9 1.1 1.9-.3 4.4-2.4 4.7l.7.6 1.8 4.3-2.3-.3-1.8-4.4-1-.4-.6 4.3-2-.3 1.4-10.4zm2.9 2c-.4-.1-.7-.1-1.1-.1l-.4 3 .9.1c.9.1 1.8-.1 2-1.1.2-1-.4-1.7-1.4-1.9zm7-.6l2 .3-1.5 10.4-2-.3 1.5-10.4zm11.4 4.1c-.2 1.2-1 2-2.2 2.1v.1c2.2.7 2.5 3.6.6 4.8-1.7 1.1-4.7.5-6.5-.2l1.5-10.2c2.1 0 7.1.2 6.6 3.4zm-4.7 1.3c.3 0 .6.1.9.1.9-.1 1.9-.8 1.6-1.8-.3-1-1.9-1.1-2.8-1.1l-.4 2.7.7.1zm0 4.6c1 .2 2.2-.3 2.2-1.5 0-1-1.1-1.3-2-1.5l-1.1-.2-.4 2.8c.3.3.9.3 1.3.4zm7.5-7.9l6.2.9-.3 1.8-4.1-.6-.4 2.4 3.8.6-.3 1.8-3.8-.6-.4 2.5 4.2.6-.3 1.8-6.2-.9 1.6-10.3z"/>
    <path fill="#FFF" fill-rule="nonzero" stroke="#D7DFE3" stroke-width="2" d="M336 1H81C51.7 1 28 24.9 28 54.2V451h23V115.4c0-3.9 3.1-7.4 7-7.4h302c3.9 0 7 3.6 7 7.4V451h22V54.2C389 24.9 365.3 1 336 1z"/>
    <path fill="#FFF" fill-rule="nonzero" d="M29 445h21v7H29v-7zm339 0h20v7h-20v-7z"/>
    <path fill="#D7DFE3" fill-rule="nonzero" d="M27 451h368v2H27"/>
    <g fill="#FFF" fill-rule="nonzero" stroke="#D7DFE3" stroke-width="2" transform="translate(178 34)">
      <circle cx="30.5" cy="4.7" r="4.1"/>
      <path d="M61 29.4c0-1.9-1.5-3.4-3.4-3.4H3.4C1.5 26 0 27.5 0 29.4v.2C0 31.5 1.5 33 3.4 33h54.2c1.9 0 3.4-1.5 3.4-3.4v-.2z"/>
    </g>
  </g>
</svg>
