<svg xmlns="http://www.w3.org/2000/svg" viewBox="0 0 373 709">
  <g fill="none" transform="translate(0 1)">
    <path fill="#D7DFE3" d="M1.67 72H6v22H2.33C1.043 94 0 92.957 0 91.67v-18C0 72.748.748 72 1.67 72zm.66 56H6v36H1.83c-.485 0-.95-.193-1.294-.536-.343-.343-.536-.81-.536-1.294v-31.84c0-.618.245-1.21.682-1.648.437-.437 1.03-.682 1.648-.682zm-.66 50H6v36H2.33C1.043 214 0 212.957 0 211.67v-32c0-.922.748-1.67 1.67-1.67zM367 128h3.7c1.27 0 2.3 1.03 2.3 2.3v31.86c0 1.01-.82 1.83-1.83 1.83H367V128z"/>
    <rect width="361" height="707" x="6" fill="#FFF" stroke="#D7DFE3" stroke-width="2" rx="52"/>
    <path fill="#FFF" stroke="#D7DFE3" stroke-width="2" d="M186.51 27.87c-2.275 0-4.12-1.845-4.12-4.12 0-2.275 1.845-4.12 4.12-4.12 2.275 0 4.12 1.845 4.12 4.12 0 2.275-1.845 4.12-4.12 4.12zM159.38 38h54.24c1.867 0 3.38 1.513 3.38 3.38v.24c0 1.867-1.513 3.38-3.38 3.38h-54.24c-1.867 0-3.38-1.513-3.38-3.38v-.24c0-1.867 1.513-3.38 3.38-3.38zm23.02 651.78c-13.133 0-23.78-10.647-23.78-23.78 0-13.133 10.647-23.78 23.78-23.78 13.133 0 23.78 10.647 23.78 23.78 0 13.133-10.647 23.78-23.78 23.78z"/>
  </g>
</svg>
