
<svg xmlns="http://www.w3.org/2000/svg" viewBox="0 0 920 488" xmlns:xlink="http://www.w3.org/1999/xlink">
  <defs>
    <path id="a" d="M0 187.82V.48h185.167v187.34z"/>
  </defs>
  <g fill="none" fill-rule="evenodd">
    <path stroke="#666" stroke-width="5" d="M402.246 57.997s115.494-113.994 218.99 12M592.736 2.5s91.495 12 121.494 161.992m28.5-22.5s7.5 86.996 37.497 113.995" stroke-linecap="round" stroke-linejoin="round"/>
    <path fill="#1BAF96" d="M919.122 395.853l-78.833-29.667s-19.84 40.333-13.17 68.333c0 0 85.33-18.67 92-38.67"/>
    <path fill="#12D1B8" d="M919.79 395.186s-31.82-45.78-23.334-108c2-14.667-62.667 64.333-56.667 81 0 0 67.33 26.333 80 27"/>
    <path fill="#1BAF96" d="M731.79 295.186s113.5 24.5 160.5-7c0 0-62.5 56.5-67 146.5 0 0-92.834-69.5-93.5-139.5"/>
    <path fill="#1CA38C" d="M839.29 368.186s-93.5-44-105-69c0 0-7 63 93.5 136.5 0 0 0-47.5 11.5-67.5"/>
    <path stroke="#F5B84B" stroke-width="5" d="M895.72 285.985s-74.995 73.497-68.996 146.993" stroke-linecap="round" stroke-linejoin="round"/>
    <path fill="#F5B84B" d="M840.224 364.48c-9.222-1.186-17.398-8.607-23.83-14.732-10.822-10.31-20.21-22.135-29.223-34.023-24.2-31.935-46.06-65.6-69.19-98.31-24.11-34.095-49.15-68.175-78.92-97.61-28.51-28.183-63.14-49.21-102.11-59.537-33.74-8.943-68.28-6.35-99.85 8.698-30.61 14.592-56.22 37.884-80.85 60.734-26.92 24.97-53.46 50.8-84.51 70.7-20.83 13.35-43.5 21.91-66.3 31.07-30.33 12.183-60.58 24.565-90.7 37.27-25.93 10.94-52.59 21.363-77.37 34.8-2.54 1.38-5.14 2.79-7.36 4.67-2.46 2.084 1.09 5.607 3.54 3.537 5.35-4.53 14.42-8.07 21.19-11.26 13.35-6.29 26.88-12.19 40.44-18.024 31.57-13.586 63.36-26.656 95.21-39.555 20.11-8.14 41.11-15.26 60.55-24.91 32.68-16.218 60.66-40.15 87.31-64.715 25.53-23.523 50.27-48.598 79.5-67.618 28.34-18.446 60.38-28.655 94.38-25.03 21.33 2.277 42 9.376 61.27 18.576 17.74 8.47 33.95 18.67 48.75 31.62 30.76 26.91 56.03 59.92 79.93 92.86 24.14 33.27 46.64 67.68 70.76 100.95 9.48 13.07 19.2 26.06 29.96 38.11 7.62 8.53 16.02 17.34 26.16 22.88 3.57 1.95 7.3 3.34 11.33 3.86 3.18.41 3.15-4.59 0-5"/>
    <path fill="#12D1B8" d="M732.79 298.186s-105.5-7-98.5 22l-15-12s-16.334-20.667 113.183-11.526l.316 1.526z"/>
    <path fill="#F38573" d="M733.12 295.168s-176.83-80.48-175.33-26.98c0 0 31-28.5 174.683 28.472l.646-1.492z"/>
    <path fill="#4A83B9" d="M733.12 295.168S592.93 205.082 606.752 144.5l-9.798 19.687s-.147 57.88 135.517 132.473l.65-1.492z"/>
    <path fill="#12D1B8" d="M740.38 284.688l-6.593 12.613-1.142 14.31-8.24-3.86 7.8-11-.638-13.63"/>
    <path fill="#EACFB2" d="M139.572 259.034s-1.64 18.58-10.93 20.22c0 0-7.65 1.092-14.48-15.03 0 0 15.028-7.65 25.41-5.19m-51.4 6.284s-3.28 14.207-8.196 14.48c0 0-6.83.82-13.388-16.393 0 0 17.213-2.186 21.585 1.913"/>
    <g transform="translate(0 79.317)">
      <mask id="b" fill="#fff">
        <use xlink:href="#a"/>
      </mask>
      <path fill="#666" d="M185.167 92.012s-4.372-29.234-1.913-50.546c0 0-2.46-11.202-9.836-2.46 0 0-3.55 9.564-4.918 5.466 0 0-5.19-38.798-10.928-23.497 0 0-4.645 15.847-6.558 12.02 0 0-17.76-32.24-22.13-26.228 0 0-3.006 3.278-5.192 15.3 0 0-22.13-27.322-24.317-20.492 0 0-1.366 10.93-1.093 15.028 0 0-27.05-16.94-25.136-7.104 0 0 .82 6.28 1.366 8.47 0 0-27.05-8.2-27.05-1.92 0 0-.272 8.19 4.1 16.94 0 0-28.69-4.1-28.69 1.36 0 0-2.458 6.83 9.837 21.04 0 0-22.14-1.92-21.86 4.92 0 0-.55 6.55 8.47 15.84 0 0-21.59 5.19-19.13 13.39 0 0 3.28 9.29 11.2 14.21 0 0-10.93 11.75-9.02 15.3 0 0 4.64 4.92 11.2 8.47 0 0-12.84 12.02-12.57 16.12 0 0 3 6.83 22.4 11.2 0 0-6.29 13.38-5.2 15.84 1.09 2.46 15.57 1.37 17.21 1.37 1.64 0-7.93 10.65-5.47 14.48 2.46 3.82 18.85-2.19 20.49-2.19 1.64 0 42.62 4.64 63.38 2.46 20.77-2.19 25.96-7.11 25.96-7.11s33.61-78.69 45.36-87.71" mask="url(#b)"/>
    </g>
    <path fill="#EACFB2" d="M185.167 171.33s-7.923 12.02-19.945 12.02-36.885-15.573-40.984 5.193c-4.098 20.765 20.22 27.595 20.22 27.595s-8.744 34.972-4.646 42.896c0 0 71.858 12.022 99.453-30.6 0 0 15.027-16.394-13.66-19.673 0 0-26.504-3.82-40.438-37.43"/>
    <path fill="#666" d="M175.33 203.843c0 3.32 2.998 6.01 6.695 6.01s6.694-2.69 6.694-6.01-3-6.01-6.7-6.01-6.7 2.69-6.7 6.01m60.97.987c-1.43 5.083.76 11.283 5.27 12.55 4.5 1.265 9.6-2.882 11.03-7.966 1.43-5.084-.77-11.284-5.27-12.55-4.51-1.266-9.61 2.88-11.04 7.965"/>
    <path stroke="#666" stroke-width="5" d="M791.816 464.163s25.36-18.245 48.538-4.005m-30.49 19.364s29.85-16.645 45.3 5.295" stroke-linecap="round" stroke-linejoin="round"/>
    <path fill="#666" d="M241.372 330.108c.52 5.146 2.68 9.822 6.054 13.766-6.728 5.887-10.585 14.403-9.673 23.45 1.57 15.568 16.648 26.8 33.68 25.085.72-.08 1.427-.18 2.13-.3 3.9 12.97 17.672 21.75 33.04 20.2 7.552-.76 14.23-3.89 19.218-8.47 5.62 9.61 16.48 15.6 28.28 14.41 9.57-.96 17.6-6.43 22.21-14.08 6.51 9.21 17.65 14.75 29.67 13.54 13.39-1.35 24.04-10.68 27.71-22.81 6.48 3.88 14.56 5.82 23.09 4.96 19.05-1.92 33.13-16.99 31.45-33.66-.05-.53-.12-1.05-.2-1.57 19.83-7.53 32.97-25.69 30.98-45.42-1.8-17.94-15.61-32.11-33.83-37.11 1.4-2.94 2.02-6.07 1.7-9.24-1.33-13.19-18.29-22.28-37.89-20.31-12.68 1.27-23.34 6.87-28.94 14.24-3.11-6.93-13.48-11.31-25.24-10.13-8.75.88-16.13 4.63-20.02 9.54l-27.99 4.86c-5.22-2.06-12.51-2.96-20.42-2.16-11.68 1.18-21.28 5.68-24.64 10.99-5.28-3.07-12.32-4.59-19.86-3.83-15.02 1.51-26.31 11.5-25.22 22.3.14 1.38.48 2.72.99 3.98-10.75 6.43-17.32 16.764-16.22 27.7m133.42-85.38c-.31-3.05 1.9-5.755 4.93-6.05 3.04-.3 5.75 1.932 6.06 4.98.31 3.046-1.89 5.755-4.93 6.05-3.03.295-5.74-1.936-6.05-4.98m160.5 137.723c-.14-1.37.867-2.6 2.24-2.733 1.38-.14 2.6.86 2.74 2.235.14 1.37-.86 2.6-2.232 2.73-1.38.14-2.6-.86-2.74-2.24M444.9 212.28c-.198-1.922 1.21-3.64 3.13-3.832 1.92-.193 3.64 1.21 3.83 3.132.193 1.923-1.21 3.64-3.13 3.832-1.925.193-3.64-1.208-3.835-3.132m-211.04 213.54c-.135-1.373.866-2.6 2.24-2.737 1.373-.14 2.6.863 2.737 2.236.14 1.37-.86 2.6-2.234 2.74-1.378.14-2.6-.86-2.74-2.24"/>
    <path fill="#666" d="M390.79 277.436c0 12.012-12.985 21.75-29 21.75-16.017 0-29-9.738-29-21.75s12.983-21.75 29-21.75c16.015 0 29 9.738 29 21.75m-115-.25s-26.5 8.5-31-2c0 0 7 32.5 17 32.5 0 0 14-21 14-30.5m51.806 148.84c0 3.315-2.686 6-6 6s-6-2.685-6-6c0-3.312 2.686-6 6-6s6 2.688 6 6m175.36-151.84c0 1.104-.895 2-2 2s-2-.896-2-2 .895-2 2-2 2 .896 2 2m-234 128.334c0 2.393-1.94 4.333-4.333 4.333-2.394 0-4.334-1.94-4.334-4.334 0-2.4 1.94-4.34 4.33-4.34s4.33 1.94 4.33 4.33"/>
    <path fill="#FFF" d="M282.66 334.5c0-8.167 1.797-14.455 5.39-18.865 3.593-4.41 8.727-6.615 15.4-6.615 3.5 0 6.557.607 9.17 1.82 2.613 1.213 4.783 2.94 6.51 5.18 1.727 2.24 3.01 4.923 3.85 8.05.84 3.127 1.26 6.603 1.26 10.43 0 8.167-1.808 14.455-5.425 18.865-3.617 4.41-8.738 6.615-15.365 6.615-3.547 0-6.627-.607-9.24-1.82-2.613-1.213-4.772-2.94-6.475-5.18-1.703-2.24-2.975-4.923-3.815-8.05-.84-3.127-1.26-6.603-1.26-10.43zm10.08 0c0 2.473.21 4.748.63 6.825.42 2.077 1.062 3.862 1.925 5.355.863 1.493 1.972 2.66 3.325 3.5 1.353.84 2.963 1.26 4.83 1.26 3.407 0 6.043-1.33 7.91-3.99s2.8-6.977 2.8-12.95c0-2.38-.198-4.597-.595-6.65-.397-2.053-1.015-3.85-1.855-5.39-.84-1.54-1.937-2.742-3.29-3.605s-3.01-1.295-4.97-1.295c-3.407 0-6.043 1.365-7.91 4.095-1.867 2.73-2.8 7.012-2.8 12.845zm36.82 0c0-8.167 1.797-14.455 5.39-18.865 3.593-4.41 8.727-6.615 15.4-6.615 3.5 0 6.557.607 9.17 1.82 2.613 1.213 4.783 2.94 6.51 5.18 1.727 2.24 3.01 4.923 3.85 8.05.84 3.127 1.26 6.603 1.26 10.43 0 8.167-1.808 14.455-5.425 18.865-3.617 4.41-8.738 6.615-15.365 6.615-3.547 0-6.627-.607-9.24-1.82-2.613-1.213-4.772-2.94-6.475-5.18-1.703-2.24-2.975-4.923-3.815-8.05-.84-3.127-1.26-6.603-1.26-10.43zm10.08 0c0 2.473.21 4.748.63 6.825.42 2.077 1.062 3.862 1.925 5.355.863 1.493 1.972 2.66 3.325 3.5 1.353.84 2.963 1.26 4.83 1.26 3.407 0 6.043-1.33 7.91-3.99s2.8-6.977 2.8-12.95c0-2.38-.198-4.597-.595-6.65-.397-2.053-1.015-3.85-1.855-5.39-.84-1.54-1.937-2.742-3.29-3.605s-3.01-1.295-4.97-1.295c-3.407 0-6.043 1.365-7.91 4.095-1.867 2.73-2.8 7.012-2.8 12.845zM378 310.49c1.96-.373 4.118-.665 6.475-.875 2.357-.21 4.702-.315 7.035-.315 2.427 0 4.865.198 7.315.595 2.45.397 4.655 1.19 6.615 2.38s3.558 2.847 4.795 4.97c1.237 2.123 1.855 4.888 1.855 8.295 0 3.08-.537 5.682-1.61 7.805-1.073 2.123-2.497 3.862-4.27 5.215-1.773 1.353-3.792 2.333-6.055 2.94-2.263.607-4.608.91-7.035.91H392c-.513 0-1.05-.012-1.61-.035-.56-.023-1.108-.058-1.645-.105-.537-.047-.922-.093-1.155-.14V359H378v-48.51zm14.28 7.07c-.933 0-1.82.035-2.66.105-.84.07-1.517.152-2.03.245v15.89c.187.047.467.093.84.14.373.047.77.082 1.19.105.42.023.828.035 1.225.035h.875c1.26 0 2.508-.117 3.745-.35 1.237-.233 2.345-.665 3.325-1.295.98-.63 1.762-1.505 2.345-2.625.583-1.12.875-2.59.875-4.41 0-1.54-.28-2.812-.84-3.815-.56-1.003-1.295-1.808-2.205-2.415-.91-.607-1.948-1.027-3.115-1.26-1.167-.233-2.357-.35-3.57-.35zm46.9 28.28c0-1.493-.548-2.707-1.645-3.64-1.097-.933-2.473-1.785-4.13-2.555-1.657-.77-3.453-1.563-5.39-2.38-1.937-.817-3.733-1.82-5.39-3.01-1.657-1.19-3.033-2.672-4.13-4.445-1.097-1.773-1.645-4.037-1.645-6.79 0-2.38.397-4.445 1.19-6.195.793-1.75 1.925-3.208 3.395-4.375 1.47-1.167 3.208-2.03 5.215-2.59 2.007-.56 4.247-.84 6.72-.84 2.847 0 5.53.245 8.05.735 2.52.49 4.597 1.202 6.23 2.135l-3.01 8.05c-1.027-.653-2.567-1.248-4.62-1.785-2.053-.537-4.27-.805-6.65-.805-2.24 0-3.955.443-5.145 1.33-1.19.887-1.785 2.077-1.785 3.57 0 1.4.548 2.567 1.645 3.5 1.097.933 2.473 1.797 4.13 2.59 1.657.793 3.453 1.61 5.39 2.45 1.937.84 3.733 1.855 5.39 3.045 1.657 1.19 3.033 2.66 4.13 4.41s1.645 3.932 1.645 6.545-.432 4.865-1.295 6.755c-.863 1.89-2.077 3.465-3.64 4.725-1.563 1.26-3.453 2.193-5.67 2.8-2.217.607-4.655.91-7.315.91-3.5 0-6.58-.327-9.24-.98s-4.62-1.307-5.88-1.96l3.08-8.19c.513.28 1.178.583 1.995.91.817.327 1.738.63 2.765.91 1.027.28 2.112.513 3.255.7 1.143.187 2.322.28 3.535.28 2.847 0 5.028-.478 6.545-1.435 1.517-.957 2.275-2.415 2.275-4.375zM457.94 310h9.38v23.03l-1.82 11.41h-5.74l-1.82-11.41V310zm-.98 44.38c0-1.633.513-2.928 1.54-3.885 1.027-.957 2.38-1.435 4.06-1.435 1.773 0 3.173.478 4.2 1.435 1.027.957 1.54 2.252 1.54 3.885s-.513 2.94-1.54 3.92c-1.027.98-2.427 1.47-4.2 1.47-1.68 0-3.033-.49-4.06-1.47-1.027-.98-1.54-2.287-1.54-3.92z"/>
  </g>
</svg>
