<svg xmlns="http://www.w3.org/2000/svg" viewBox="0 0 374 456">
  <g fill="none" fill-rule="evenodd" transform="translate(1)">
    <path fill="#FFF" fill-rule="nonzero" d="M30 227h314v229H30"/>
    <path fill="#D7DFE3" fill-rule="nonzero" d="M1.67 77H6v22H2.33C1.043 99 0 97.957 0 96.67v-18c0-.443.176-.868.49-1.18.312-.314.737-.49 1.18-.49zm0 56H6v36H2.33C1.043 169 0 167.957 0 166.67v-32c0-.922.748-1.67 1.67-1.67zm0 50H6v36H2.33C1.043 219 0 217.957 0 216.67v-32c0-.443.176-.868.49-1.18.312-.314.737-.49 1.18-.49zM367 133h3.7c1.27 0 2.3 1.03 2.3 2.3v31.86c0 1.01-.82 1.83-1.83 1.83H367V133zM250 0h58c1.105 0 2 .895 2 2v3h-62V2c0-1.105.895-2 2-2z"/>
    <path fill="#FFF" fill-rule="nonzero" stroke="#D7DFE3" stroke-width="2" d="M314 5H59C29.693 5.083 5.983 28.873 6 58.18V455h23V119.43c0-3.87 3.13-7.43 7-7.43h302c3.87 0 7 3.56 7 7.43V455h22V58.18c.028-29.312-23.688-53.108-53-53.18z"/>
    <path fill="#F7F9F9" fill-rule="nonzero" d="M36 113h301.66c3.5 0 6.34 2.84 6.34 6.34V227H30V119c0-3.314 2.686-6 6-6z"/>
    <path fill="#E3E8EB" fill-rule="nonzero" d="M30 227h314v2H30v-2zm0 117h314v2H30v-2z"/>
    <path fill="#838383" fill-rule="nonzero" d="M65.73 144h-1.5v-9.28h5.24V136h-3.74v2.9h3.5v1.29h-3.5V144zm8.82-7.15c.248-.006.496.014.74.06l-.15 1.39c-.63-.2-1.32-.084-1.85.313s-.835 1.025-.82 1.687v3.7H71v-7h1.17l.2 1.24h.08c.4-.806 1.2-1.337 2.1-1.39zm8.27 3.63c0 2-1.11 3.58-3.18 3.65-2.31.08-3.57-1.82-3.45-4-.017-.886.33-1.74.963-2.363.63-.622 1.49-.957 2.377-.927.934.004 1.822.4 2.448 1.094.627.692.932 1.617.842 2.546zm-5.11 0c0 1.1.33 2.29 1.58 2.42.52.066 1.045-.103 1.43-.46.386-.356.595-.865.57-1.39.12-1.09 0-2.64-1.32-2.93-1.61-.36-2.26 1.01-2.26 2.36zM90.45 144h-1.5v-4.33c0-1.06-.63-1.88-1.78-1.54-1.15.34-1.17 1.45-1.17 2.37v3.5h-1.47v-7h1.17l.21.92H86c.82-1.4 3.49-1.47 4.21.06h.1c.742-1.024 2.084-1.415 3.26-.95.922.426 1.458 1.404 1.32 2.41V144h-1.5v-4.33c.088-.456-.065-.924-.404-1.24-.34-.318-.817-.438-1.266-.32-1 .21-1.27 1.24-1.27 2.17V144zm17.32-9.28v6c0 4.53-7.36 4.52-7.36 0v-6h1.52v5.87c-.093.653.142 1.31.628 1.755.486.446 1.16.623 1.802.475.555-.026 1.075-.283 1.433-.708.36-.425.524-.98.457-1.532v-5.86h1.52zm8.39 9.28h-1.5v-4.32c.076-.48-.1-.964-.466-1.283-.366-.32-.87-.427-1.334-.287-1.18.23-1.38 1.34-1.38 2.39v3.5H110v-7h1.17l.21.92h.08c.825-1.025 2.238-1.366 3.44-.83.875.44 1.385 1.377 1.28 2.35V144h-.02zm5.64-7.15c.248-.006.496.014.74.06l-.15 1.39c-.63-.2-1.32-.084-1.85.313s-.835 1.025-.82 1.687v3.7h-1.49v-7h1.17l.2 1.24h.08c.404-.812 1.214-1.344 2.12-1.39zm8.27 3.63c0 2-1.11 3.58-3.18 3.65-2.31.08-3.57-1.82-3.45-4-.017-.886.33-1.74.963-2.363.63-.622 1.49-.957 2.377-.927.934.004 1.822.4 2.448 1.094.627.692.932 1.617.842 2.546zm-5.11 0c0 1.1.33 2.29 1.58 2.42.52.066 1.045-.103 1.43-.46.386-.356.595-.865.57-1.39.12-1.09 0-2.64-1.32-2.93-1.61-.36-2.22 1.01-2.22 2.36h-.04zm8.32 3.52h-1.49v-9.88h1.49V144zm3.62 0h-1.49v-9.88h1.49V144zm1.91-.79c0-.52.42-.94.94-.94s.94.42.94.94-.42.94-.94.94-.94-.42-.94-.94zm7.97.79l-2.69-7.75H144c.073 1.153.11 2.233.11 3.24V144h-1.38v-9.28h2.14l2.58 7.38 2.65-7.38h2.15V144h-1.46v-4.59c-.025-1.05.01-2.103.1-3.15h.01l-2.78 7.74h-1.34zm10.89.13c-3.05 0-4.52-3.51-2.86-6 .815-1.123 2.26-1.595 3.58-1.17 1.274.426 2.097 1.66 2 3v.81h-4.68c.07 2.46 2.59 2.38 4.33 1.61v1.21c-.74.356-1.55.54-2.37.54zm-.27-6.13c-.94.033-1.678.82-1.65 1.76h3.19c.054-.443-.083-.888-.377-1.224-.294-.336-.717-.53-1.163-.536z"/>
    <path fill="#11D1B8" fill-rule="nonzero" d="M67.6 160.82l-4.14-7.92h2.94l2.3 4.73.3 1.37.27-1.37 2.23-4.7h2.65l-4.12 7.9v4.7H67.6v-4.71zm6.23.18c0-2.56 1.36-4.67 4.08-4.75 2.72-.08 4.4 2 4.4 4.75 0 2.47-1.25 4.59-3.9 4.74-2.93.17-4.58-1.95-4.58-4.74zm2.41 0c0 1.3.5 3 2.13 2.75 1.39-.21 1.55-1.79 1.52-2.93-.03-1.14-.39-2.61-1.81-2.6-1.42.01-1.84 1.55-1.84 2.78zm10.93-4.5v5.11c0 .75 0 1.78.87 2 .957.194 1.902-.38 2.17-1.32v-5.79h2.34v6.26c-.015.922.082 1.842.29 2.74h-1.76l-.41-1.33h-.08c-.822 1.276-2.374 1.874-3.84 1.48-1.63-.4-1.92-2.09-1.92-3.55v-5.6h2.34zm13.39 2.2c-1-.36-2.3-.21-2.63 1v5.81h-2.34v-9h1.82l.27 1.19h.07c.536-1.18 1.922-1.71 3.11-1.19l-.3 2.19zm7.94-5.8c2.12-.3 4.83-.5 6.82.41 2.33 1.07 3.1 3.56 3.05 6-.05 2.44-1 4.71-3.24 5.79-1.93.92-4.57.77-6.64.45V152.9h.01zm3.87 2c-.468-.018-.936.006-1.4.07v8.44c1.115.336 2.323.13 3.262-.56.94-.687 1.502-1.776 1.518-2.94.25-2.37-.58-4.99-3.38-4.99v-.02zM121 157c1.79-.81 5.68-1.51 6.72.75.36 1.172.44 2.412.23 3.62-.166 1.385-.075 2.788.27 4.14h-1.91l-.31-1.23h-.09c-1.27 2-4.86 1.86-5.35-.7-.59-3.06 3-3.54 5.19-3.44.11-.87.05-1.67-.93-1.86-1.088-.14-2.194.03-3.19.49L121 157zm3 6.7c.72.02 1.388-.368 1.73-1v-1.17c-.74-.07-2.05-.14-2.61.5-.307.31-.378.78-.177 1.166.2.386.628.598 1.057.524v-.02zm6.87-9.7c0-1.7 3-1.66 3 0s-3 1.62-3 0zm.34 2.54h2.34v9h-2.34v-9zm8.03 5.94c0 1.12.6 1.43 1.62 1l.25 1.84c-1.66.83-4.21.66-4.21-1.62v-10.8h2.34v9.58zm7.15-.92l.32 1.4h.11l.23-1.42 1.37-5h2.41l-2.74 8.12c-.68 2-1.85 5.87-4.77 4.27l.43-1.87c1.1.44 1.73-.59 1.93-1.51l-3.76-9h2.81l1.66 5.01zm11.27-8.56c2.25-.39 5.86-.92 7.58 1 1.72 1.92.51 5.36-1.87 6.11l.88.56 2.88 4.81h-2.84l-2.86-4.93-1.29-.23v5.17h-2.47V153h-.01zm3.78 1.89c-.44-.027-.88.004-1.31.09v3.65h1c1.093.142 2.095-.627 2.24-1.72.07-.535-.11-1.073-.485-1.46-.375-.39-.908-.583-1.445-.53v-.03zm6.69 6.11c0-2.56 1.36-4.67 4.08-4.75 2.72-.08 4.4 2 4.39 4.75 0 2.47-1.25 4.59-3.9 4.74-2.92.17-4.57-1.95-4.57-4.74zm2.41 0c0 1.3.5 3 2.13 2.75 1.39-.21 1.55-1.79 1.52-2.93-.03-1.14-.39-2.61-1.81-2.6-1.42.01-1.84 1.55-1.84 2.78zm11.09 1.48c0 1.11.6 1.43 1.62 1l.25 1.84c-1.66.83-4.21.66-4.21-1.62v-10.8h2.34v9.58zm6.28 0c0 1.12.61 1.42 1.62 1l.25 1.84c-1.66.83-4.21.66-4.21-1.62v-10.8h2.34v9.58zm6.09-5.98v5.11c0 .75 0 1.78.87 2 .957.194 1.902-.38 2.17-1.32v-5.79h2.34v6.26c-.017.922.08 1.842.29 2.74h-1.77l-.41-1.33h-.07c-.822 1.276-2.374 1.874-3.84 1.48-1.64-.4-1.92-2.09-1.92-3.55v-5.6H194zm8.46 0h1.71l.27 1.08h.07c.995-1.313 2.784-1.733 4.26-1 1.33.64 1.68 2.15 1.77 3.5.1 1.65-.12 3.58-1.43 4.75-1.203 1.01-2.88 1.24-4.31.59v3.69h-2.34V156.5zm4 1.73c-.813 0-1.512.573-1.67 1.37v3.74c.57.44 1.33.542 1.995.264.664-.277 1.128-.89 1.215-1.604.29-1.31.32-3.77-1.53-3.77h-.01z"/>
    <path fill="#838383" fill-rule="nonzero" d="M70.8 178H72v7c.09 1.02-.29 2.023-1.033 2.728-.742.704-1.764 1.033-2.777.892-.917.062-1.817-.273-2.47-.92-.655-.646-1-1.542-.95-2.46V178H66v6.66c0 1.67.72 2.88 2.52 2.86 1.8-.02 2.26-1.3 2.26-2.86V178h.02zm4.08 3h.83l.23.9H76c.912-1.154 2.54-1.45 3.8-.69.908.72 1.396 1.845 1.3 3 .18 1.402-.313 2.807-1.33 3.79-1.065.795-2.476.95-3.69.41v3.12h-1.2V181zm3 .87c-.93-.017-1.722.675-1.83 1.6v3.72c.62.46 1.43.58 2.16.323.727-.26 1.28-.864 1.47-1.613.44-1.48.25-4.03-1.76-4.03h-.04zm11.33 4.05c-.036.873.014 1.747.15 2.61h-.81l-.3-1.06h-.06c-.8 1.186-2.362 1.582-3.63.92-1.04-.667-1.64-1.846-1.56-3.08-.196-1.31.2-2.64 1.08-3.63 1.103-.86 2.58-1.07 3.88-.55V178h1.2v7.92h.05zm-3 1.71c.928 0 1.702-.707 1.79-1.63v-3.72c-.606-.44-1.386-.562-2.097-.328-.71.233-1.266.795-1.493 1.508-.41 1.46-.22 4.17 1.77 4.17h.03zm5.64-6.07c1.33-.81 4.44-1.32 5.14.56.222.985.256 2.003.1 3-.127 1.142-.07 2.296.17 3.42h-.88l-.31-1H96c-1.13 1.76-4.41 1.48-4.58-.83-.17-2.31 2.79-2.67 4.52-2.42.08-.83.19-1.89-.76-2.21-1.005-.225-2.058-.064-2.95.45l-.38-.97zm2.13 6c.848.054 1.643-.42 2-1.19v-1.24c-.87-.06-2.24-.2-2.93.45-.338.354-.42.88-.21 1.322.21.442.672.708 1.16.668l-.02-.01zm4.89-6.56H100v-1.48l1.2-.35V181h2v1h-2v4.16c0 1.45.85 1.64 2.11 1.13l.27.92c-.854.482-1.872.576-2.8.26-.62-.495-.923-1.288-.79-2.07V182h-1.12v-1zm11.83 6.9c-1.47 1.107-3.503 1.07-4.93-.09-1.14-1.18-1.21-3.4-.71-4.88.505-1.482 2.02-2.367 3.56-2.08 2.15.24 2.53 2.18 2.25 4h-4.81c-.135 1.042.38 2.06 1.3 2.57.972.377 2.07.22 2.9-.41l.44.89zm-2.58-6c-.548-.014-1.077.198-1.465.585-.387.388-.6.917-.585 1.465h3.72c0-1.13-.41-2.08-1.67-2.08v.03zm8.48 4.56c0-1.06-1.36-1.25-2.11-1.58-1.026-.32-1.654-1.352-1.47-2.41.32-2.11 3.15-1.87 4.6-1.17l-.29 1c-.76-.37-3.26-1-3.15.58.08 1.21 2.32 1.34 3 2.08.457.5.658 1.183.545 1.852-.114.668-.53 1.246-1.125 1.568-1.277.514-2.718.422-3.92-.25l.36-1c.96.5 3.56 1.08 3.56-.67zm7.09-5.46h1.17v-.42c0-1 .14-2.1 1.14-2.51.86-.274 1.79-.227 2.62.13l-.27 1c-.57-.29-1.236-.334-1.84-.12-.55.32-.46 1.17-.46 1.71v.21h2v1h-2v6.45h-1.2V182h-1.17v-1h.01zm9.6 1.15c-1-.33-2.15-.08-2.34 1.1v5.25h-1.2V181h.84l.23.92h.06c.523-.945 1.676-1.342 2.67-.92l-.26 1.15zm1.59 2.6c0-2 .92-3.84 3.13-3.93 2.37-.09 3.43 1.77 3.44 3.93 0 1.93-.85 3.77-3 3.92-2.45.18-3.57-1.67-3.57-3.92zm1.25 0c0 1.53.83 3.34 2.66 2.8 1.19-.35 1.42-1.72 1.42-2.8 0-1.48-.7-3.18-2.47-2.85-1.34.26-1.61 1.68-1.61 2.85zm12.06 3.75v-4.25c0-.81 0-2-.89-2.32-.493-.132-1.018-.057-1.454.207-.436.264-.745.695-.856 1.193v5.16h-1.2V181h.84l.23.92h.06c1.07-1.26 3.52-1.72 4.22.15.69-1.03 1.967-1.5 3.16-1.16 1.41.34 1.49 1.9 1.49 3.1v4.5h-1.2V184c0-1-.1-2-1.29-2.11-.964-.06-1.805.65-1.91 1.61v5h-1.2zm16.35-5.23h3.52v4.62c-1.5.95-3.378 1.086-5 .36-1.77-.84-2.42-2.81-2.48-4.65-.318-1.865.432-3.752 1.943-4.89 1.51-1.14 3.532-1.34 5.237-.52l-.31 1.11c-1.287-.597-2.786-.515-4 .22-1.045.883-1.615 2.204-1.54 3.57-.155 1.414.346 2.822 1.36 3.82 1.09.798 2.537.914 3.74.3v-2.92l-2.44-.3v-.71l-.03-.01zm9.46-1.12c-1-.33-2.15-.08-2.34 1.1v5.25h-1.2V181h.84l.23.92h.06c.526-.94 1.676-1.337 2.67-.92l-.26 1.15zm1.64 2.6c0-2 .92-3.84 3.13-3.93 2.37-.09 3.43 1.77 3.44 3.93 0 1.93-.85 3.77-3 3.92-2.41.18-3.57-1.67-3.57-3.92zm1.25 0c0 1.53.83 3.34 2.66 2.8 1.19-.35 1.42-1.72 1.42-2.8 0-1.48-.7-3.18-2.47-2.85-1.34.26-1.62 1.68-1.62 2.85h.01zm8.74-3.75v4.27c0 .88 0 2.06 1.08 2.31 1.092.17 2.136-.512 2.42-1.58v-5h1.2v5.37c-.018.714.035 1.427.16 2.13h-.82l-.3-1.19h-.07c-.673 1.103-1.995 1.625-3.24 1.28-1.42-.33-1.63-1.82-1.63-3.07V181h1.2zm7.45 0h.83l.22.9h.06c.912-1.154 2.54-1.45 3.8-.69.907.72 1.394 1.846 1.3 3 .19 1.396-.288 2.8-1.29 3.79-1.065.795-2.476.95-3.69.41v3.12h-1.2V181h-.03zm3 .87c-.93-.012-1.718.678-1.83 1.6v3.72c.62.46 1.43.58 2.16.323.727-.26 1.28-.864 1.47-1.613.44-1.48.25-4.03-1.77-4.03h-.03zm5.15 2.88c0-2 .92-3.84 3.13-3.93 2.37-.09 3.43 1.77 3.44 3.93 0 1.93-.85 3.77-3 3.92-2.41.18-3.57-1.67-3.57-3.92zm1.25 0c0 1.53.83 3.34 2.66 2.8 1.19-.35 1.42-1.72 1.42-2.8 0-1.48-.7-3.18-2.47-2.85-1.35.26-1.62 1.68-1.62 2.85h.01zM215 188.5v-4.27c0-.92-.11-2.08-1.16-2.31-1.072-.222-2.136.412-2.45 1.46v5.13h-1.2V181h.81l.22.92h.06c.823-.976 2.148-1.37 3.37-1 1.34.4 1.52 1.83 1.52 3v4.53H215v.05zm3.37-.65c0-1.27 1.71-.85 1.89.18.182 1.173-.5 2.31-1.62 2.7l-.37-.58c.642-.247 1.066-.862 1.07-1.55-.234.088-.497.05-.694-.104-.198-.153-.302-.397-.276-.646zm11.71-2.26h-3.85l-1 2.91h-1.25l4-10.67h.57l4 10.67h-1.32l-1.15-2.91zm-3.45-1.08h3.08l-1.17-3.19-.37-1.59-.37 1.62-1.17 3.16zm11.96 3.99v-4.25c0-.81 0-2-.89-2.32-.493-.132-1.018-.057-1.454.207-.436.264-.745.695-.856 1.193v5.16h-1.2V181h.81l.22.92h.06c1.06-1.26 3.52-1.72 4.21.15.69-1.03 1.967-1.5 3.16-1.16 1.41.34 1.49 1.9 1.49 3.1v4.5H243V184c0-1-.1-2-1.29-2.11-.964-.06-1.805.65-1.91 1.61v5h-1.21zm8.12-6.94c1.33-.81 4.44-1.32 5.14.56.222.985.256 2.003.1 3-.125 1.142-.068 2.296.17 3.42h-.88l-.32-1h-.08c-1.13 1.76-4.41 1.48-4.58-.83-.17-2.31 2.79-2.67 4.52-2.42.08-.83.19-1.89-.76-2.21-1.005-.225-2.058-.064-2.95.45l-.36-.97zm2.13 6c.848.054 1.643-.42 2-1.19v-1.24c-.87-.06-2.24-.2-2.93.45-.334.352-.42.872-.213 1.312.205.44.66.708 1.143.678v-.01zm5.35-.11l3.46-4.77.63-.63h-4.09v-1h5.34v1l-3.53 4.82-.61.58h4.09v1h-5.34v-1h.05zm7.02-2.7c0-2 .92-3.84 3.13-3.93 2.37-.09 3.43 1.77 3.44 3.93 0 1.93-.85 3.77-3 3.92-2.4.18-3.57-1.67-3.57-3.92zm1.25 0c0 1.53.83 3.34 2.66 2.8 1.19-.35 1.42-1.72 1.42-2.8 0-1.48-.7-3.18-2.47-2.85-1.34.26-1.61 1.68-1.61 2.85zm12.48 3.75v-4.27c0-.92-.11-2.08-1.16-2.31-1.072-.222-2.136.412-2.45 1.46v5.13h-1.2V181h.87l.22.92h.06c.823-.976 2.148-1.37 3.37-1 1.34.4 1.52 1.83 1.52 3v4.53h-1.2l-.03.05zm3.42-.65c0-1.27 1.71-.85 1.89.18.182 1.173-.5 2.31-1.62 2.7l-.37-.58c.642-.247 1.066-.862 1.07-1.55-.234.088-.497.05-.694-.104-.198-.153-.302-.397-.276-.646zM64.78 198h5.71v1.11H66v3.58h4.17v1.11H66v4.7h-1.22V198zm7.96 3.55c1.33-.81 4.44-1.32 5.14.56.222.985.256 2.003.1 3-.126 1.142-.07 2.296.17 3.42h-.88l-.31-1h-.08c-1.13 1.75-4.4 1.48-4.58-.83-.18-2.31 2.79-2.67 4.52-2.42.08-.83.19-1.89-.76-2.21-1.005-.225-2.058-.064-2.95.45l-.37-.97zm2.13 6c.848.054 1.643-.42 2-1.19v-1.25c-.87-.06-2.24-.2-2.93.45-.35.35-.444.88-.236 1.33.208.448.673.72 1.166.68v-.02zm11 .45c-1.22.833-2.8.925-4.11.24-1.22-.76-1.45-2.35-1.42-3.67-.086-1.25.44-2.466 1.41-3.26 1.24-.69 2.74-.712 4-.06l-.35 1c-1.73-1-3.5-.25-3.75 1.72-.262 1.145.064 2.345.87 3.2.92.612 2.13.564 3-.12l.35.95zm7.22-.1c-1.47 1.104-3.505 1.063-4.93-.1-1.14-1.18-1.21-3.4-.71-4.88.508-1.473 2.018-2.353 3.55-2.07 2.15.24 2.53 2.18 2.25 4h-4.8c-.135 1.042.38 2.06 1.3 2.57.972.377 2.07.22 2.9-.41l.44.89zm-2.58-6c-.548-.014-1.077.198-1.465.585-.387.388-.6.917-.585 1.465h3.72c0-1.13-.41-2.08-1.67-2.08v.03zm5.18-3.9h1.2v3.74h.06c1.006-1.09 2.674-1.24 3.86-.35 1.06.86 1.16 2.52 1.07 3.76.002 1.357-.776 2.594-2 3.18-1.38.528-2.92.43-4.22-.27V198h.03zm3.09 3.87c-.924.032-1.706.694-1.89 1.6v3.78c4.11 2.36 5.11-5.38 1.89-5.38zm5.04 2.88c0-2 .92-3.84 3.13-3.92 2.37-.09 3.43 1.77 3.44 3.92 0 1.93-.85 3.77-3 3.92-2.39.17-3.57-1.67-3.57-3.92zm1.25 0c0 1.53.83 3.34 2.66 2.8 1.19-.35 1.42-1.72 1.42-2.8 0-1.48-.7-3.18-2.47-2.85-1.34.26-1.62 1.68-1.62 2.85h.01zm7.24 0c0-2 .92-3.84 3.13-3.92 2.37-.09 3.43 1.77 3.44 3.92 0 1.93-.85 3.77-3 3.92-2.41.17-3.57-1.67-3.57-3.92zm1.25 0c0 1.53.83 3.34 2.66 2.8 1.19-.35 1.42-1.72 1.42-2.8 0-1.48-.7-3.18-2.47-2.85-1.34.26-1.62 1.68-1.62 2.85h.01zm9.55.38h-.69v3.38h-1.2V198h1.2v6.39l.62-.21 2.32-3.18h1.39l-2.29 3-.62.5.75.6 2.51 3.39h-1.49l-2.5-3.36zm5.32 2.73c0-1.27 1.72-.85 1.89.18.182 1.173-.5 2.31-1.62 2.7l-.37-.58c.638-.246 1.062-.856 1.07-1.54-.235.083-.497.04-.694-.114-.196-.154-.3-.397-.276-.646zm11.71-2.27h-3.85l-1 2.91H134l4-10.67h.57l4 10.67h-1.32l-1.11-2.91zm-3.45-1.08h3.08l-1.16-3.19-.37-1.59-.37 1.62-1.18 3.16zm7.57-3.51h.83l.22.9h.06c.912-1.154 2.54-1.45 3.8-.69.907.72 1.394 1.846 1.3 3 .157 1.38-.334 2.753-1.33 3.72-1.065.795-2.476.95-3.69.41v3.12h-1.2V201h.01zm3 .87c-.93-.012-1.718.678-1.83 1.6v3.72c.62.46 1.43.58 2.16.323.727-.26 1.28-.864 1.47-1.613.43-1.48.25-4.03-1.77-4.03h-.03zm5.56-.87h.82l.23.9h.06c.913-1.16 2.548-1.456 3.81-.69.908.72 1.396 1.845 1.3 3 .157 1.38-.334 2.753-1.33 3.72-1.065.795-2.476.95-3.69.41v3.12h-1.2V201zm3 .87c-.93-.012-1.718.678-1.83 1.6v3.72c.62.46 1.43.58 2.16.323.727-.26 1.28-.864 1.47-1.613.44-1.48.25-4.03-1.77-4.03h-.03zm6.9 4.79c0 1 .82 1.11 1.62.81l.13.95c-1.31.66-3 .21-3-1.41v-9h1.2v8.66l.05-.01zm8.97 1.24c-1.47 1.104-3.505 1.063-4.93-.1-1.14-1.18-1.2-3.4-.71-4.88.505-1.482 2.02-2.367 3.56-2.08 2.16.24 2.52 2.18 2.25 4H167c-.135 1.042.38 2.06 1.3 2.57.972.377 2.07.22 2.9-.41l.49.9zm-2.58-6c-.548-.014-1.077.198-1.465.585-.387.388-.6.917-.585 1.465h3.72c0-1.13-.41-2.08-1.67-2.08v.03zm10.25 3.8c.155-1.593 1.118-2.995 2.55-3.71-.6-.91-1.24-2.09-.67-3.18.545-.837 1.56-1.238 2.53-1 .482.042.926.28 1.228.658.302.377.437.862.372 1.342-.294 1.032-1.025 1.883-2 2.33.744 1.29 1.663 2.47 2.73 3.51.536-.687.934-1.47 1.17-2.31l.93.44c-.333.933-.812 1.807-1.42 2.59.567.548 1.198 1.025 1.88 1.42l-.75.84c-.675-.366-1.29-.835-1.82-1.39-1.96 1.99-6.73 2.07-6.73-1.54zm6 .84c-1.108-1.148-2.084-2.415-2.91-3.78-1.14.84-2.66 2.49-1.56 4 1.1 1.51 3.49 1.07 4.47-.19-.28-.32-.1.1.01-.03h-.01zm-3.18-6.79c.042.644.275 1.26.67 1.77.7-.45 2-1.5 1.18-2.44-.295-.296-.736-.395-1.13-.254-.393.14-.67.497-.71.914l-.01.01zm18.07 8.75v-4.25c0-.81 0-2-.89-2.32-.493-.132-1.018-.057-1.454.207-.436.264-.745.695-.856 1.193v5.16h-1.2V201h.84l.22.92h.09c1.06-1.26 3.52-1.72 4.22.15.687-1.035 1.964-1.508 3.16-1.17 1.41.34 1.49 1.9 1.49 3.1v4.5h-1.2V204c0-1-.1-2-1.29-2.11-.964-.06-1.805.65-1.91 1.61v5h-1.22zm7.82-3.75c0-2 .92-3.84 3.13-3.92 2.37-.09 3.43 1.77 3.44 3.92 0 1.93-.85 3.77-3 3.92-2.41.17-3.57-1.67-3.57-3.92zm1.25 0c0 1.53.83 3.34 2.66 2.8 1.19-.35 1.42-1.72 1.42-2.8 0-1.48-.7-3.18-2.47-2.85-1.35.26-1.62 1.68-1.62 2.85h.01zm11.2-2.59c-1-.33-2.15-.08-2.34 1.09v5.25H217V201h.84l.22.92h.06c.523-.945 1.676-1.342 2.67-.92l-.27 1.16zm7.48 5.74c-1.47 1.104-3.505 1.063-4.93-.1-1.14-1.18-1.21-3.4-.71-4.88.505-1.482 2.02-2.367 3.56-2.08 2.15.24 2.53 2.18 2.25 4h-4.81c-.135 1.042.38 2.06 1.3 2.57.972.377 2.07.22 2.9-.41l.44.9zm-2.58-6c-.548-.014-1.077.198-1.465.585-.387.388-.6.917-.585 1.465h3.72c0-1.13-.41-2.08-1.67-2.08v.03zm4.76 5.91c0-.48.39-.87.87-.87s.87.39.87.87-.39.87-.87.87-.87-.39-.87-.87z"/>
    <circle cx="43.5" cy="171.5" r="4" fill="#11D1B8" fill-rule="nonzero"/>
    <path fill="#A5A6A6" fill-rule="nonzero" d="M299.45 136.19c.034-1.14.876-2.092 2.003-2.264 1.127-.17 2.215.487 2.587 1.564.7 2.47-.8 5.43-3.47 5.65l-.28-1c1.24-.106 2.26-1.02 2.5-2.24-1.26 1.35-3.34-.16-3.34-1.71zm1.26-.07c.028.51.367.95.854 1.105.486.155 1.018-.006 1.336-.405.188-.704-.12-1.446-.75-1.81-.347-.136-.74-.08-1.034.147-.295.228-.45.593-.406.963zm4.99.6c0-.447.363-.81.81-.81.447 0 .81.363.81.81 0 .447-.363.81-.81.81-.447 0-.81-.363-.81-.81zm0 3.62c0-.447.363-.81.81-.81.447 0 .81.363.81.81 0 .447-.363.81-.81.81-.447 0-.81-.363-.81-.81zm2.3-2.85c0-1.62.46-3.62 2.44-3.63 1.98-.01 2.44 2 2.44 3.63s-.41 3.54-2.31 3.64c-2.11.12-2.57-1.97-2.57-3.64zm1.3 0c0 .78 0 2.55 1.14 2.55s1.14-1.77 1.14-2.55c0-.78 0-2.53-1.15-2.53s-1.17 1.76-1.17 2.53h.04zm4.43 0c0-1.62.46-3.62 2.44-3.63 1.98-.01 2.44 2 2.44 3.63s-.41 3.54-2.31 3.64c-2.07.12-2.57-1.97-2.57-3.64zm1.3 0c0 .78 0 2.55 1.14 2.55s1.14-1.77 1.14-2.55c0-.78 0-2.53-1.15-2.53s-1.16 1.76-1.16 2.53h.03zm8.12 1.96H321l-.53 1.55h-1.37l2.52-7h1l2.52 7h-1.44l-.55-1.55zm-1.8-1.1h1.5l-.52-1.56-.21-1.1-.21 1.11-.56 1.55zm9.93-.98l.15-1.39h-.06l-.43 1.12-1.49 2.61H329l-1.57-2.62L327 136l.2 1.38V141h-1.3v-7h1.25l1.87 3.2.33.8.3-.82 1.77-3.18h1.24v7h-1.37v-3.63h-.01z"/>
    <path fill="#D7DFE3" fill-rule="nonzero" d="M327.19 177.41c-.214.166-.5.2-.75.093-.247-.108-.416-.343-.44-.613v-2.69c-1.552-.225-3.085-.56-4.59-1-.602-.36-.97-1.012-.97-1.715 0-.703.368-1.354.97-1.715 1.506-.448 3.044-.782 4.6-1v-2.7c.022-.25.17-.472.392-.59.222-.117.49-.113.708.01 2.345 1.568 4.488 3.418 6.38 5.51.217.257.217.633 0 .89-1.863 2.08-3.98 3.917-6.3 5.47-.11.15 3.31-2.05 0 .05z"/>
    <path fill="#DADADA" fill-rule="nonzero" d="M293.52 252.4l-2.3-4.4h1.63l1.28 2.63.14.74.15-.76 1.24-2.61h1.47l-2.29 4.39V255h-1.37v-2.6h.05zm7.25 2.17c-1.037.77-2.45.79-3.51.05-.815-.983-1.005-2.342-.49-3.51.585-1.14 1.957-1.627 3.13-1.11 1.1.49 1.12 1.77.93 2.79h-3c.07 1.33 1.54 1.63 2.51.89l.43.89zm-1.86-3.67c-.583.038-1.03.536-1 1.12h1.86c.076-.268.02-.555-.15-.776-.168-.22-.432-.348-.71-.344zm5.09 2.72c0-.56-1.06-.66-1.43-.87-.657-.327-.996-1.07-.81-1.78.34-1.44 2.39-1.31 3.42-.72l-.29.94c-.34-.13-2.4-.61-1.76.39.292.233.634.394 1 .47.47.152.853.493 1.06.94.8 2.22-2.33 2.5-3.61 1.7l.36-1c.46.31 2.06.83 2.06-.07zm1.75-3.62h.69v-.94l1.3-.37V250H309v1.1h-1.22v1.9c0 .84.37 1.16 1.17.81l.23 1c-1.26.6-2.7.38-2.7-1.21v-2.5h-.69V250h-.04zm8.06 4.57c-1.037.77-2.45.79-3.51.05-.815-.983-1.005-2.342-.49-3.51.598-1.12 1.96-1.587 3.12-1.07 1.1.49 1.12 1.77.93 2.79h-3c.07 1.33 1.54 1.63 2.51.89l.44.85zM312 250.9c-.583.038-1.03.536-1 1.12h1.86c.076-.268.02-.555-.15-.776-.168-.22-.432-.348-.71-.344zm5.75.32c-.26-.155-.578-.182-.862-.075-.284.107-.504.337-.598.625V255H315v-5h1l.15.66c.296-.66 1.07-.955 1.73-.66l-.13 1.22zm5.1 2.02c.004.59.054 1.178.15 1.76h-1l-.18-.65c-.57.823-1.687 1.048-2.53.51-.638-.51-.98-1.306-.91-2.12-.05-1.79 1.21-3.49 3.19-2.71v-2h1.3v5.24l-.02-.03zm-2.21.8c.44.018.826-.288.91-.72v-2.12c-1.84-1.46-2.71 2.8-.91 2.8v.04zm3.42-3.75c1.1-.49 3.33-.85 3.82.64.42 1.29-.25 2.76.19 4.08H327l-.21-.69c-.71 1.1-2.68 1-3-.39-.35-1.69 1.68-2 2.88-1.91.17-1.39-1.39-1.17-2.29-.76l-.32-.97zm1.65 3.72c.41.025.8-.19 1-.55v-.65c-.5-.12-1.03-.018-1.45.28-.128.172-.148.4-.053.593.094.192.29.314.503.317v.01zm5.29-1.2l.18.78h.06l.13-.79.76-2.8h1.34l-1.52 4.51c-.37 1.1-1 3.27-2.65 2.37l.24-1c.26.07.535.013.745-.152.21-.166.33-.42.325-.688l-2.09-5H330l1 2.77zM293.52 372.4l-2.3-4.4h1.63l1.28 2.63.14.74.15-.76 1.24-2.61h1.47l-2.29 4.39V375h-1.37v-2.6h.05zm7.25 2.17c-1.037.77-2.45.79-3.51.05-.815-.983-1.005-2.342-.49-3.51.585-1.14 1.957-1.627 3.13-1.11 1.1.49 1.12 1.77.93 2.79h-3c.07 1.33 1.54 1.63 2.51.89l.43.89zm-1.86-3.67c-.583.038-1.03.536-1 1.12h1.86c.076-.268.02-.555-.15-.776-.168-.22-.432-.348-.71-.344zm5.09 2.72c0-.56-1.06-.66-1.43-.87-.657-.327-.996-1.07-.81-1.78.34-1.44 2.39-1.31 3.42-.72l-.29.94c-.34-.13-2.4-.61-1.76.39.292.233.634.394 1 .47.47.152.853.493 1.06.94.8 2.22-2.33 2.5-3.61 1.7l.36-1c.46.31 2.06.83 2.06-.07zm1.75-3.62h.69v-.94l1.3-.37V370H309v1.1h-1.22v1.9c0 .84.37 1.16 1.17.81l.23 1c-1.26.6-2.7.38-2.7-1.21v-2.5h-.69V370h-.04zm8.06 4.57c-1.037.77-2.45.79-3.51.05-.815-.983-1.005-2.342-.49-3.51.598-1.12 1.96-1.587 3.12-1.07 1.1.49 1.12 1.77.93 2.79h-3c.07 1.33 1.54 1.63 2.51.89l.44.85zM312 370.9c-.583.038-1.03.536-1 1.12h1.86c.076-.268.02-.555-.15-.776-.168-.22-.432-.348-.71-.344zm5.75.32c-.26-.155-.578-.182-.862-.075-.284.107-.504.337-.598.625V375H315v-5h1l.15.66c.296-.66 1.07-.955 1.73-.66l-.13 1.22zm5.1 2.02c.004.59.054 1.178.15 1.76h-1l-.18-.65c-.57.823-1.687 1.048-2.53.51-.638-.51-.98-1.306-.91-2.12-.05-1.79 1.21-3.49 3.19-2.71v-2h1.3v5.24l-.02-.03zm-2.21.8c.44.018.826-.288.91-.72v-2.12c-1.84-1.46-2.71 2.8-.91 2.8v.04zm3.42-3.75c1.1-.49 3.33-.85 3.82.64.42 1.29-.25 2.76.19 4.08H327l-.21-.69c-.71 1.1-2.68 1-3-.39-.35-1.69 1.68-2 2.88-1.91.17-1.39-1.39-1.17-2.29-.76l-.32-.97zm1.65 3.72c.41.025.8-.19 1-.55v-.65c-.5-.12-1.03-.018-1.45.28-.128.172-.148.4-.053.593.094.192.29.314.503.317v.01zm5.29-1.2l.18.78h.06l.13-.79.76-2.8h1.34l-1.52 4.51c-.37 1.1-1 3.27-2.65 2.37l.24-1c.26.07.535.013.745-.152.21-.166.33-.42.325-.688l-2.09-5H330l1 2.77z"/>
    <path fill="#F1F1F1" fill-rule="nonzero" d="M321.41 287.22c1.505.44 3.038.775 4.59 1v2.68c.02.268.183.503.427.614.244.11.53.078.743-.084 2.322-1.555 4.44-3.392 6.31-5.47.74-.84-1.7-2.66-2.17-3.09-.82-.77-1.676-1.498-2.57-2.18-.41-.31-2.74-2.19-2.74-.55v2.7c-1.54.115-3.06.43-4.52.94-.624.345-1.017.997-1.032 1.71-.014.713.352 1.38.962 1.75v-.02zm5.71 112.31c-.22-.127-.492-.133-.718-.016-.227.118-.378.342-.402.596v2.7c-1.31.21-2.63.43-3.91.76-.952.136-1.655.958-1.64 1.92-.03.965.673 1.798 1.63 1.93 1.29.33 2.61.56 3.92.77v2.68c.02.268.183.503.427.614.244.11.53.078.743-.084 2.322-1.555 4.44-3.392 6.31-5.47.67-.76-1.17-2.13-1.6-2.55-1.45-1.447-3.05-2.737-4.77-3.85h.01z"/>
    <path fill="#FFF" fill-rule="nonzero" d="M7 449h21v7H7v-7zm339 0h20v7h-20v-7z"/>
    <circle cx="186.51" cy="42.75" r="4.12" fill="#FFF" fill-rule="nonzero" stroke="#D7DFE3" stroke-width="2"/>
    <rect width="61" height="7" x="156" y="64" fill="#FFF" fill-rule="nonzero" stroke="#D7DFE3" stroke-width="2" rx="3.38"/>
    <path fill="#EFEFEF" fill-rule="nonzero" d="M65 250h74v8H65v-8zm0 16h112v19H65v-19zm0 32h239v9H65v-9zm0 16h200v9H65v-9zm0 57h55v8H65v-8zm0 16h164v19H65v-19zm0 32h205v9H65v-9zm0 16h148v9H65v-9z"/>
    <path stroke="#D7DFE3" stroke-width="2" d="M366.5 455H.503" stroke-linecap="square"/>
  </g>
</svg>
