<svg xmlns="http://www.w3.org/2000/svg" viewBox="0 0 240 219">
  <path fill="#E0E0E0" fill-rule="evenodd" d="M168.362 153.246l-24.303 18.987c2.51 4.522 3.94 9.728 3.94 15.267 0 17.397-14.103 31.5-31.5 31.5S85 204.897 85 187.5c0-6.427 1.925-12.404 5.23-17.387l-30.482-37.64C54.128 135.365 47.756 137 41 137c-22.644 0-41-18.356-41-41s18.356-41 41-41c11.024 0 21.032 4.35 28.4 11.43l26.134-20.42C93.276 41.67 92 36.734 92 31.5 92 14.103 106.103 0 123.5 0S155 14.103 155 31.5 140.897 63 123.5 63c-9.285 0-17.63-4.017-23.396-10.408L74.61 72.512C79.266 79.163 82 87.26 82 96c0 13.003-6.053 24.592-15.495 32.104l29.047 35.87c5.567-4.96 12.905-7.974 20.948-7.974 8.98 0 17.08 3.757 22.818 9.784l24.33-19.007C160.057 140.684 158 133.583 158 126c0-1.456.076-2.894.224-4.31l-18.26-2.893C136.065 125.497 128.808 130 120.5 130c-12.426 0-22.5-10.074-22.5-22.5S108.074 85 120.5 85 143 95.074 143 107.5c0 1.236-.1 2.45-.292 3.632l17.124 2.712C165.012 97.134 180.59 85 199 85c22.644 0 41 18.356 41 41s-18.356 41-41 41c-12.185 0-23.13-5.316-30.638-13.754z"/>
</svg>
