<svg xmlns="http://www.w3.org/2000/svg" xmlns:xlink="http://www.w3.org/1999/xlink" viewBox="0 0 292 227">
  <path fill="#FFF" stroke="#D7DFE3" stroke-width="2" stroke-miterlimit="10" d="M291 221c0 2.8-2.2 5-5 5H6c-2.8 0-5-2.2-5-5v-55c0-2.8 2.2-5 5-5h280c2.8 0 5 2.2 5 5v55z"/>
  <path fill="#11D1B8" d="M272.7 185.5s-12.2 17.4-13.2 18.8c-1.3 1.8-3.9 1.9-5.3 0-1-1.3-8.9-12.6-8.9-12.6-.4-.6-.4-1.4.1-1.9 1.1-1 2.3-1.8 3.7-2.5.6-.3 1.3-.1 1.8.5l6 8.5 10.3-14.6c.4-.6 1.2-.8 1.8-.5 1.3.7 2.5 1.5 3.6 2.5.5.4.5 1.2.1 1.8z"/>
  <path fill="#838383" d="M69.4 186.8h7.1v2.1h-4.7v2.9H76v2.1h-4.4v4.8h-2.3v-11.9zm9 3.9c1.6-.7 5.2-1.4 6.3.6.6 1.1.3 2.5.3 3.6-.1 1.3-.1 2.6.3 3.8h-1.8l-.4-1.2H83c-1.2 1.9-4.6 1.8-5-.7-.6-2.9 2.8-3.3 4.9-3.2.1-.9 0-1.6-.9-1.8-.9-.1-2.1.1-2.9.5l-.7-1.6zm2.8 6.3c.7 0 1.3-.3 1.6-.9V195c-.7-.1-1.9-.1-2.5.5-.5.6.1 1.5.9 1.5zm12.3 1.1c-1.2.9-3.4 1.1-4.7.3-1.5-.8-1.7-2.7-1.7-4.2s.4-3.1 1.8-3.8c1.3-.8 3.2-.6 4.5.1l-.5 1.8c-1.8-.9-3.4-.2-3.5 1.8 0 .9.1 2 .9 2.5.8.6 2 .4 2.8-.2l.4 1.7zm8.4-.2c-1.5 1.2-4.4 1.4-5.9.1-1.5-1.3-1.6-4.1-.9-5.9.7-1.9 2.9-2.6 4.8-2.1 2.3.6 2.5 2.9 2.1 4.9h-5.1c.1 2.3 2.6 2.8 4.3 1.5l.7 1.5zm-3.2-6.2c-1.1 0-1.7.8-1.8 1.9h3.2c.1-1-.3-1.9-1.4-1.9zm5.6-4.9h2.2v4.1h.1c1-1.2 3.1-1.2 4.2-.1 1.1 1.1 1.2 3 1 4.5-.5 3.6-4.5 4.5-7.5 3.1v-11.6zm3.7 5c-.8 0-1.3.5-1.6 1.2v3.7c3.7 1.9 4.2-4.9 1.6-4.9zm5.5 2.6c0-2.2 1-4.2 3.4-4.5 2.8-.3 4.5 1.6 4.6 4.3.1 2.3-1 4.4-3.5 4.6-2.8.3-4.5-1.7-4.5-4.4zm2.3 0c0 1.2.5 2.8 2 2.6 1.3-.2 1.5-1.7 1.4-2.8 0-1.2-.4-2.6-1.8-2.4-1.4.1-1.6 1.5-1.6 2.6zm7.4 0c0-2.2 1.1-4.2 3.4-4.5 2.8-.3 4.5 1.6 4.6 4.3.1 2.3-1 4.4-3.5 4.6-2.9.3-4.5-1.7-4.5-4.4zm2.3 0c0 1.2.5 2.8 2 2.6 1.3-.2 1.5-1.7 1.4-2.8 0-1.2-.4-2.6-1.8-2.4-1.4.1-1.6 1.5-1.6 2.6zm10.6.7h-.6v3.5h-2.2v-11.9h2.2v7l.5-.2 1.9-3.4h2.4l-2 3.2-.9.6.9.7 2.3 4h-2.5l-2-3.5zm16.9-8.3h2.2v7.7c0 1.4-.4 2.9-1.6 3.8-1.1.7-2.6.8-3.9.6-2.1-.4-3.2-1.9-3.2-4v-8h2.3v7.5c0 1.6.7 2.7 2.5 2.5 1.4-.1 1.7-1.3 1.7-2.5v-7.6zm4.7 3.4h1.6l.3 1h.1c.8-1.2 2.6-1.6 3.9-1 1.3.5 1.7 1.9 1.8 3.1.1 1.5 0 3.1-1 4.3-1 1.2-3 1.7-4.4.9v3.5h-2.2v-11.8zm3.8 1.6c-.8 0-1.3.5-1.6 1.3v3.5c3.2 2.5 4.6-4.8 1.6-4.8zm13.1 3.9c0 1 0 2 .2 3h-1.6l-.3-1.1h-.1c-.8 1.4-2.8 1.7-4.1.9-1.2-.7-1.6-2-1.7-3.3-.1-1.5.1-3.1 1.1-4.2s2.9-1.3 4.3-.8v-3.5h2.2v9zm-3.7 1.3c.8 0 1.3-.5 1.5-1.2v-3.6c-1.2-1-2.8-.1-3.1 1.3-.2 1.2-.1 3.5 1.6 3.5zm6.2-6.3c1.6-.7 5.2-1.4 6.3.6.6 1.1.3 2.5.3 3.6-.1 1.3-.1 2.6.3 3.8h-1.8l-.4-1.2h-.1c-1.3 1.9-4.7 1.7-5.1-.8-.4-2.8 2.9-3.2 4.9-3.1.1-.9 0-1.6-.9-1.8-.9-.1-2.1.1-2.9.5l-.6-1.6zm2.8 6.3c.7 0 1.3-.3 1.6-.9V195c-.7-.1-1.9-.1-2.5.5-.5.6.1 1.5.9 1.5zm5.3-6.8h1.2v-1.6l2.2-.6v2.2h2.1v1.9h-2.1v3.3c0 1.4.6 2 2 1.4l.4 1.7c-1 .5-2.3.8-3.3.4s-1.3-1.4-1.3-2.4V192h-1.2v-1.8zm14.1 7.7c-1.5 1.2-4.4 1.4-5.9.1-1.5-1.3-1.6-4.1-.9-5.9.7-1.9 2.9-2.6 4.8-2.1 2.3.6 2.5 2.9 2.1 4.9h-5.1c.1 2.3 2.6 2.8 4.3 1.5l.7 1.5zm-3.2-6.2c-1.1 0-1.7.8-1.8 1.9h3.2c.1-1-.3-1.9-1.4-1.9zm9.1 4.6c0-1-2.2-1.3-2.9-1.8-.9-.7-1.2-1.7-.9-2.8.6-2.4 4.1-2.2 5.8-1.2l-.5 1.6c-.5-.2-3.7-1.1-3.1.5.2.6 1.4.8 1.9 1 .7.3 1.4.7 1.8 1.5.6 1.3-.1 3-1.4 3.5-1.4.6-3.4.3-4.7-.5l.6-1.6c.6.4 3.4 1.4 3.4-.2z"/>
  <circle cx="38.2" cy="193.5" r="18.8" fill="#3C5A99"/>
  <path fill="#FFF" d="M39 205v-10h3.4l.5-4H39v-3.1c0-1.2 0-1.9 1.7-1.9H43v-3.9c0-.1-1.4-.2-2.9-.2-3.2 0-5.1 1.9-5.1 5.5v3.5h-4v4h4v10h4z"/>
  <path fill="#FFF" stroke="#D7DFE3" stroke-width="2" stroke-miterlimit="10" d="M291 141c0 2.8-2.2 5-5 5H6c-2.8 0-5-2.2-5-5V86c0-2.8 2.2-5 5-5h280c2.8 0 5 2.2 5 5v55z"/>
  <g fill="#838383">
    <path d="M27.4 110.5c0 1.3-.8 2.4-2.1 2.8v.1c2.6.4 3.4 3.8 1.3 5.4-1.8 1.4-5.1 1.2-7.2.8v-11.7c2.4-.4 8-1.1 8 2.6zm-5.1 2.3c.4 0 .7 0 1.1-.1 1-.3 2.1-1.3 1.4-2.4-.6-1-2.3-.9-3.2-.7v3.1h.7zm.8 5.1c1 0 2.2-.5 2.2-1.7 0-1.4-1.4-1.6-2.5-1.6h-1.2v3.2c.4.1 1.1.1 1.5.1zm9.1-1.1c0 1.1.6 1.3 1.5 1l.2 1.7c-1.6.8-4 .6-4-1.5v-10.2h2.2v9zm3.2-5.1c1.6-.7 5.2-1.4 6.3.6.6 1.1.3 2.5.3 3.6-.1 1.3-.1 2.6.3 3.8h-1.8l-.4-1.2H40c-1.2 1.9-4.6 1.8-5-.7-.6-2.9 2.8-3.3 4.9-3.2.1-.9 0-1.6-.9-1.8-.9-.1-2.1.1-2.9.5l-.7-1.6zm2.8 6.3c.7 0 1.3-.3 1.6-.9V116c-.7-.1-1.9-.1-2.5.5-.5.6.1 1.5.9 1.5zm12.2 1.1c-1.2.9-3.4 1.1-4.7.3-1.5-.8-1.7-2.7-1.7-4.2s.4-3.1 1.8-3.8c1.3-.8 3.2-.6 4.5.1l-.5 1.8c-1.8-.8-3.4-.2-3.5 1.8 0 .9.1 2 .9 2.5.8.6 2 .4 2.8-.2l.4 1.7zm4.7-3h-.6v3.5h-2.2v-11.9h2.2v7l.5-.2 1.9-3.4h2.4l-2 3.2-.9.6.9.7 2.3 4h-2.5l-2-3.5zm6.3-4.9h2.2v8.9c0 2.3-1.3 3.5-3.7 3.1v-1.9c1.2 0 1.4-.7 1.4-1.8v-8.3zm-.3-2.4c0-1.6 2.8-1.6 2.8 0 0 1.5-2.8 1.5-2.8 0zm5.2 2.9c1.6-.7 5.2-1.4 6.3.6.6 1.1.3 2.5.3 3.6-.1 1.3-.1 2.6.3 3.8h-1.8l-.4-1.2h-.1c-1.3 1.9-4.7 1.7-5.1-.8-.4-2.8 2.9-3.2 4.9-3.1.1-.9 0-1.6-.9-1.8-.9-.1-2.1.1-2.9.5l-.6-1.6zm2.8 6.3c.7 0 1.3-.3 1.6-.9V116c-.7-.1-1.9-.1-2.5.5-.5.6.1 1.5.9 1.5zm12.2 1.1c-1.2.9-3.4 1.1-4.7.3-1.5-.8-1.7-2.7-1.7-4.2s.4-3.1 1.8-3.8c1.3-.8 3.2-.6 4.5.1l-.5 1.8c-1.8-.8-3.4-.2-3.5 1.8 0 .9.1 2 .9 2.5.8.6 2 .4 2.8-.2l.4 1.7zm4.7-3h-.6v3.5h-2.2v-11.9h2.2v7l.5-.2 1.9-3.4h2.4l-2 3.2-.9.6.9.7 2.3 4H88l-2-3.5zm18.3 3.1c-1.6 1.2-4.6 1-6.2-.1-1.8-1.2-2.3-3.5-2.3-5.5 0-1.9.6-3.9 2.3-5.1 1.6-1.2 4.2-1.2 6-.5l-.5 2c-1.2-.6-3-.6-4.1.3-1 .8-1.2 2.1-1.3 3.3 0 1.3.2 2.9 1.4 3.7 1.1.8 2.9.7 4.1 0l.6 1.9zm1.7-7.5c1.6-.7 5.2-1.4 6.3.6.6 1.1.3 2.5.3 3.6-.1 1.3-.1 2.6.3 3.8H111l-.4-1.2h-.1c-1.3 1.9-4.7 1.7-5.1-.8-.4-2.8 2.9-3.2 4.9-3.1.1-.9 0-1.6-.9-1.8-.9-.1-2.1.1-2.9.5l-.5-1.6zm2.8 6.3c.7 0 1.3-.3 1.6-.9V116c-.7-.1-1.9-.1-2.5.5-.5.6.1 1.5.9 1.5zm9.7-.7c0-1-2.2-1.3-2.9-1.8-.9-.7-1.2-1.7-.9-2.8.6-2.4 4.1-2.2 5.8-1.2l-.5 1.6c-.5-.2-3.7-1.1-3.1.5.2.6 1.4.8 1.9 1 .7.3 1.4.7 1.8 1.5.6 1.3-.1 3-1.4 3.5-1.4.6-3.4.3-4.7-.5l.6-1.6c.7.4 3.4 1.4 3.4-.2zm4.1-8.5c0-1.6 2.8-1.6 2.8 0 0 1.5-2.8 1.5-2.8 0zm.4 2.4h2.2v8.5H123v-8.5zm10.1 8.5v-4.8c0-.7-.1-1.7-.9-1.9-.9-.2-1.8.4-2.1 1.2v5.5h-2.2v-8.5h1.8l.3 1.1h.1c.8-1.1 2.2-1.6 3.6-1.3 1.5.4 1.8 2 1.8 3.4v5.3h-2.4zm4.2-4.3c0-2.2 1.1-4.2 3.4-4.5 2.8-.3 4.5 1.6 4.6 4.3.1 2.3-1 4.4-3.5 4.6-2.9.3-4.5-1.7-4.5-4.4zm2.2 0c0 1.2.5 2.8 2 2.6 1.3-.2 1.5-1.7 1.4-2.8 0-1.2-.4-2.6-1.8-2.4-1.3.1-1.6 1.5-1.6 2.6zm12.7-7.5c2.1-.4 5.5-.9 7.2.9 1.7 1.9.5 5.1-1.8 5.8l.8.5 2.7 4.5h-2.7l-2.7-4.7-1.2-.2v4.9h-2.3v-11.7zm3.6 1.8c-.4 0-.8 0-1.2.1v3.5h1c1.1 0 2.1-.5 2.1-1.7 0-1.3-.8-1.9-1.9-1.9zm13.2 9.2c-1.5 1.2-4.4 1.4-5.9.1-1.5-1.3-1.6-4.1-.9-5.9.7-1.9 2.9-2.6 4.8-2.1 2.3.6 2.5 2.9 2.1 4.9H164c.1 2.3 2.6 2.8 4.3 1.5l.7 1.5zm-3.2-6.2c-1.1 0-1.7.8-1.8 1.9h3.2c0-1-.3-1.9-1.4-1.9zm11.6-1.5l1.5 4.4.3 1.4h.1l.2-1.4 1.1-4.3h2l-2.6 8.6h-1.6l-1.7-4.8-.2-1.1h-.1l-.2 1.1-1.6 4.7h-1.7l-2.7-8.6h2.4l1.2 4.3.2 1.5h.1l.3-1.5 1.4-4.2h1.6zm6.6.5c1.6-.7 5.2-1.4 6.3.6.6 1.1.3 2.5.3 3.6-.1 1.3-.1 2.6.3 3.8H189l-.4-1.2h-.1c-1.3 1.9-4.7 1.7-5.1-.8-.4-2.8 2.9-3.2 4.9-3.1.1-.9 0-1.6-.9-1.8-.9-.1-2.1.1-2.9.5l-.5-1.6zm2.8 6.3c.7 0 1.3-.3 1.6-.9V116c-.7-.1-1.9-.1-2.5.5-.5.6.1 1.5.9 1.5zm10.9-4.8c-1-.3-2.2-.2-2.5.9v5.5H193v-8.5h1.7l.3 1.1h.1c.5-1.2 1.7-1.5 2.9-1.1l-.3 2.1zm9.1 3.5c0 1 0 2 .2 3h-1.6l-.3-1.1h-.1c-.8 1.4-2.8 1.7-4.1.9-1.2-.7-1.6-2-1.7-3.3-.1-1.5.1-3.1 1.1-4.2s2.9-1.3 4.3-.8v-3.5h2.2v9zM203 118c.8 0 1.3-.5 1.5-1.2v-3.6c-1.2-1-2.8-.2-3.1 1.2-.1 1.3-.1 3.6 1.6 3.6zm9.8-.7c0-1-2.2-1.3-2.9-1.8-.9-.7-1.2-1.7-.9-2.8.6-2.4 4.1-2.2 5.8-1.2l-.5 1.6c-.5-.2-3.7-1.1-3.1.5.2.6 1.4.8 1.9 1 .7.3 1.4.7 1.8 1.5.6 1.3-.1 3-1.4 3.5-1.4.6-3.4.3-4.7-.5l.6-1.6c.6.4 3.4 1.4 3.4-.2z"/>
    <path d="M18.3 115.8v-.8H216v.8H18.3z"/>
  </g>
  <path fill="#F18573" d="M268.9 121c.6.5.7 1.4.2 1.9-1 1.2-2 2.3-3.3 3.3-.5.4-1.3.3-1.9-.2l-6.3-6.3-6.3 6.3c-.5.5-1.4.6-1.9.2-1.2-1-2.3-2-3.2-3.2-.4-.5-.3-1.4.2-1.9l6.3-6.3-6.3-6.3c-.6-.6-.7-1.4-.2-1.9 1-1.2 2-2.3 3.2-3.3.5-.4 1.4-.3 1.9.2l6.3 6 6.3-6c.6-.6 1.4-.7 1.9-.2 1.2 1 2.3 2 3.3 3.3.4.5.3 1.3-.2 1.9l-6.3 6.3 6.3 6.2z"/>
  <defs>
    <path id="a" d="M261.1 127.7zm.2.2zm9 .3c-.2.1-.2.3-.2.6v-.7c.2-.3.6-.4 1-.4.7 0 1.2.5 1.2 1.1v3.4c0 .2 0 .4-.1.5-.1.7-.4 1.3-1 2.2-.9 1.4-1 1.6-1 2.1v.2h-7.1v-.2c0-.3-.4-.8-1.6-2l-.3-.3c-1-1-1.5-1.6-1.5-2.2v-3.8c0-.8.7-1.4 1.6-1.4h.3v3.1s.1.1.3.1c.2 0 .3-.1.3-.1V121c0-.7.6-1.3 1.4-1.3.8 0 1.4.6 1.4 1.3v5.7c-.2.2-.2.4-.2.6v-.7c.3-.4.8-.6 1.3-.6.9 0 1.6.6 1.6 1.3v.2c-.2.2-.2.4-.2.6v-.7c.3-.4.8-.6 1.3-.6.7 0 1.5.6 1.5 1.4z"/>
  </defs>
  <clipPath id="b">
    <use xlink:href="#a" overflow="visible"/>
  </clipPath>
  <path fill="#FFF" d="M255 115h22v27h-22z" clip-path="url(#b)"/>
  <defs>
    <path id="c" d="M272 128.8c0-.5-.4-.8-1-.8-.5 0-1 .4-1 .8v-.6c0-.6-.6-1.1-1.3-1.1-.7 0-1.3.5-1.3 1.1v-.8c0-.6-.6-1.1-1.3-1.1-.7 0-1.3.5-1.3 1.1V121c0-.6-.5-1-1.2-1-.6 0-1.2.5-1.2 1v9.4c0 .2-.2.3-.5.3s-.5-.2-.5-.3v-2.8c-.7 0-1.3.5-1.3 1.1v3.9c0 1.3 3.3 3.3 3.3 4.4h6.7c0-1.2 2-3 2-4.8v-2.3l-.1-1.1zM249 109h34v39h-34v-39z"/>
  </defs>
  <clipPath id="d">
    <use xlink:href="#c" overflow="visible"/>
  </clipPath>
  <path fill="none" stroke="#000" stroke-width="2" stroke-miterlimit="10" d="M272 128.8c0-.5-.4-.8-1-.8-.5 0-1 .4-1 .8v-.6c0-.6-.6-1.1-1.3-1.1-.7 0-1.3.5-1.3 1.1v-.8c0-.6-.6-1.1-1.3-1.1-.7 0-1.3.5-1.3 1.1V121c0-.6-.5-1-1.2-1-.6 0-1.2.5-1.2 1v9.4c0 .2-.2.3-.5.3s-.5-.2-.5-.3v-2.8c-.7 0-1.3.5-1.3 1.1v3.9c0 1.3 3.3 3.3 3.3 4.4h6.7c0-1.2 2-3 2-4.8v-2.3l-.1-1.1z" clip-path="url(#d)"/>
  <path fill="#FFF" stroke="#D7DFE3" stroke-width="2" stroke-miterlimit="10" d="M291 61c0 2.8-2.2 5-5 5H6c-2.8 0-5-2.2-5-5V6c0-2.8 2.2-5 5-5h280c2.8 0 5 2.2 5 5v55z"/>
  <path fill="#11D1B8" d="M272.7 25.5s-12.2 17.4-13.2 18.8c-1.3 1.8-3.9 1.9-5.3 0-1-1.3-8.9-12.6-8.9-12.6-.4-.6-.4-1.4.1-1.9 1.1-1 2.3-1.8 3.7-2.5.6-.3 1.3-.1 1.8.5l6 8.5 10.3-14.6c.4-.6 1.2-.8 1.8-.5 1.3.7 2.5 1.5 3.6 2.5.5.4.5 1.2.1 1.8z"/>
  <path fill="#838383" d="M73.6 32.5H78v5.3c-1.6 1.4-4.5 1.5-6.3.5-2-1-2.7-3.3-2.7-5.4 0-2.1.6-4.2 2.3-5.4 1.7-1.2 4.3-1.2 6.2-.5l-.5 2c-1.2-.5-2.8-.6-3.9 0-1.3.6-1.7 2.1-1.7 3.4-.1 1.3.1 2.8 1.1 3.7.9.8 2.6 1.1 3.6.3v-2.2l-2.6-.3v-1.4zm11.3-.3c-1-.3-2.2-.2-2.5.9v5.5h-2.2v-8.5h1.7l.3 1.1h.1c.6-1.2 1.7-1.5 2.9-1.1l-.3 2.1zm1.4 2.2c0-2.2 1-4.2 3.4-4.5 2.8-.3 4.5 1.6 4.6 4.3.1 2.3-1 4.4-3.5 4.6-2.8.3-4.5-1.7-4.5-4.4zm2.3 0c0 1.2.5 2.8 2 2.6 1.3-.2 1.5-1.7 1.4-2.8 0-1.2-.4-2.6-1.8-2.4-1.4.1-1.6 1.5-1.6 2.6zm9.9-4.2V35c0 .7 0 1.7.8 1.9.9.3 1.7-.4 2-1.2v-5.5h2.2v5.9c0 .9.1 1.7.3 2.6h-1.7l-.4-1.3h-.1c-.8 1.3-2.4 1.8-3.8 1.4-1.5-.4-1.7-2-1.7-3.3v-5.3h2.4zm7.6 0h1.6l.3 1h.1c.8-1.2 2.6-1.6 3.9-1 1.3.5 1.7 1.9 1.8 3.1.1 1.5 0 3.1-1 4.3-1 1.2-3 1.7-4.4.9V42h-2.2V30.2zm3.8 1.6c-.8 0-1.3.5-1.6 1.3v3.5c3.2 2.5 4.6-4.8 1.6-4.8zm5.5 2.6c0-2.2 1.1-4.2 3.4-4.5 2.8-.3 4.5 1.6 4.6 4.3.1 2.3-1 4.4-3.5 4.6-2.9.3-4.5-1.7-4.5-4.4zm2.3 0c0 1.2.5 2.8 2 2.6 1.3-.2 1.5-1.7 1.4-2.8 0-1.2-.4-2.6-1.8-2.4-1.4.1-1.6 1.5-1.6 2.6zm13 4.3v-4.8c0-.7-.1-1.7-.9-1.9-.9-.2-1.8.4-2.1 1.2v5.5h-2.2v-8.5h1.8l.3 1.1h.1c.8-1.2 2.3-1.7 3.7-1.2 1.4.5 1.6 2 1.6 3.3v5.3h-2.3zm9.5-11.9c1.9-.3 4.3-.5 6.2.3 2.4.9 3.2 3.4 3.2 5.7 0 2.3-.9 4.4-3.1 5.5-1.8.9-4.3.7-6.3.4V26.8zm3.6 1.9c-.4 0-.9 0-1.3.1v8c2.4.6 4.2-.8 4.5-3.2.3-2.3-.5-4.9-3.2-4.9zm14.7 9.2c-1.5 1.2-4.4 1.4-5.9.1-1.5-1.3-1.6-4.1-.9-5.9.7-1.9 2.9-2.6 4.8-2.1 2.3.6 2.5 2.9 2.1 4.9h-5.1c.1 2.3 2.6 2.8 4.3 1.5l.7 1.5zm-3.2-6.2c-1.1 0-1.7.8-1.8 1.9h3.2c.1-1-.3-1.9-1.4-1.9zm5.5-1c1.6-.7 5.2-1.4 6.3.6.6 1.1.3 2.5.3 3.6-.1 1.3-.1 2.6.3 3.8h-1.8l-.4-1.2h-.1c-1.3 1.9-4.7 1.7-5.1-.8-.4-2.8 2.9-3.2 4.9-3.1.1-.9 0-1.6-.9-1.8-.9-.1-2.1.1-2.9.5l-.6-1.6zm2.8 6.3c.7 0 1.3-.3 1.6-.9V35c-.7-.1-1.9-.1-2.5.5-.5.6.1 1.5.9 1.5zm8.5-1.2c0 1.1.6 1.3 1.5 1l.2 1.7c-1.6.8-4 .6-4-1.5V26.8h2.2v9zm6.8.5c0-1-2.2-1.3-2.9-1.8-.9-.7-1.2-1.7-.9-2.8.6-2.4 4.1-2.2 5.8-1.2l-.5 1.6c-.5-.2-3.7-1.1-3.1.5.2.6 1.4.8 1.9 1 .7.3 1.4.7 1.8 1.5.6 1.3-.1 3-1.4 3.5-1.4.6-3.4.3-4.7-.5l.6-1.6c.6.4 3.4 1.4 3.4-.2z"/>
  <path fill="#95D06D" d="M38.2 15c-10.4 0-18.8 8.4-18.8 18.8s8.4 18.8 18.8 18.8S57 44.2 57 33.8 48.5 15 38.2 15zm10.1 26.2c-2.3 3.3-6.1 5.3-10.2 5.3-3.5 0-6.5-1.3-8.8-3.8-2.2-2.4-3.4-5.3-3.4-8.8 0-3.3 1.3-6.3 3.6-8.6s5.3-3.5 8.7-3.5c5.1 0 9.6 3.2 11.5 8.2h-6.6c-.2-.3-.4-.5-.6-.7-1.3-1.4-2.7-1.6-4.3-1.6-1.9 0-3.7.9-4.8 2.3-.9 1.1-1.4 2.4-1.4 3.9 0 3.8 2.9 6.6 6.2 6.6 1.1 0 2.1-.1 3-.6.5-.3.9-.7 1.3-1.1.4-.5.7-1 1-1.7H37v-4h13.4s.1.9.1 1.4c-.1 2.6-.8 4.7-2.2 6.7z"/>
</svg>
