<?xml version="1.0" encoding="UTF-8"?>
<svg width="32px" height="32px" viewBox="0 0 32 32" version="1.1" xmlns="http://www.w3.org/2000/svg" xmlns:xlink="http://www.w3.org/1999/xlink">
    <!-- Generator: Sketch 63.1 (92452) - https://sketch.com -->
    <title>linkedin</title>
    <desc>Created with Sketch.</desc>
    <g id="linkedin" stroke="none" stroke-width="1" fill="none" fill-rule="evenodd">
        <path d="M5.46759259,9 C6.52623457,9 7.37962963,8.66414141 8.02777778,7.99242424 C8.67592593,7.32070707 9,6.48989899 9,5.5 C8.97839506,4.48653199 8.65432099,3.64983165 8.02777778,2.98989899 C7.40123457,2.32996633 6.56944444,2 5.53240741,2 C4.47376543,2 3.62037037,2.32996633 2.97222222,2.98989899 C2.32407407,3.64983165 2,4.48653199 2,5.5 C2,6.48989899 2.31867284,7.32070707 2.95601852,7.99242424 C3.5933642,8.66414141 4.41975309,9 5.43518519,9 L5.43518519,9 L5.46759259,9 Z M17.8716578,30 L17.8716578,19.3125 C17.8716578,18.1689815 18.1764706,17.2893519 18.7860963,16.6736111 C19.3957219,16.0578704 20.1604278,15.75 21.0802139,15.75 C22.0213904,15.75 22.7807487,16.0908565 23.3582888,16.7725694 C23.9358289,17.4542824 24.2245989,18.4988426 24.2245989,19.90625 L24.2245989,19.90625 L24.2245989,30 L30,30 L30,19.3125 C30,16.6956019 29.3636364,14.6559606 28.0909091,13.1935764 C26.8181818,11.7311921 25.144385,11 23.0695187,11 C20.9518717,11 19.2192513,12.0445602 17.8716578,14.1336806 L17.8716578,14.1336806 L17.6791444,11.59375 L12,11.59375 L12.0962567,15.75 L12.0962567,30 L17.8716578,30 Z M9,30 L9,12 L3,12 L3,30 L9,30 Z" id="l" fill="#4F4F4F" fill-rule="nonzero"></path>
    </g>
</svg>