<?xml version="1.0" encoding="UTF-8"?>
<svg width="32px" height="32px" viewBox="0 0 32 32" version="1.1" xmlns="http://www.w3.org/2000/svg" xmlns:xlink="http://www.w3.org/1999/xlink">
    <!-- Generator: Sketch 63.1 (92452) - https://sketch.com -->
    <title>twitter</title>
    <desc>Created with Sketch.</desc>
    <g id="twitter" stroke="none" stroke-width="1" fill="none" fill-rule="evenodd">
        <path d="M10.0740741,29.125 C12.4197531,29.125 14.6111111,28.7546296 16.6481481,28.0138889 C18.6851852,27.2731481 20.4320988,26.2854938 21.8888889,25.0509259 C23.345679,23.816358 24.5987654,22.3904321 25.6481481,20.7731481 C26.6975309,19.1558642 27.4753086,17.470679 27.9814815,15.7175926 C28.4876543,13.9645062 28.7407407,12.2114198 28.7407407,10.4583333 L28.7407407,10.4583333 L28.7407407,9.60648148 C30.0246914,8.66820988 31.1111111,7.53240741 32,6.19907407 C30.7407407,6.74228395 29.4814815,7.08796296 28.2222222,7.23611111 C29.654321,6.39660494 30.617284,5.1867284 31.1111111,3.60648148 C29.8024691,4.37191358 28.4197531,4.90277778 26.962963,5.19907407 C25.6296296,3.81635802 24.0246914,3.125 22.1481481,3.125 C20.3209877,3.125 18.7716049,3.76697531 17.5,5.05092593 C16.2283951,6.33487654 15.5925926,7.87808642 15.5925926,9.68055556 C15.5925926,10.2731481 15.6419753,10.779321 15.7407407,11.1990741 C13.0493827,11.0509259 10.537037,10.3904321 8.2037037,9.21759259 C5.87037037,8.04475309 3.87654321,6.45833333 2.22222222,4.45833333 C1.62962963,5.49537037 1.33333333,6.55709877 1.33333333,7.64351852 C1.33333333,9.96450617 2.30864198,11.779321 4.25925926,13.087963 C3.22222222,13.0632716 2.2345679,12.7916667 1.2962963,12.2731481 L1.2962963,12.2731481 L1.2962963,12.3472222 C1.2962963,13.9274691 1.7962963,15.3225309 2.7962963,16.5324074 C3.7962963,17.742284 5.04938272,18.4953704 6.55555556,18.7916667 C5.98765432,18.9398148 5.40740741,19.0138889 4.81481481,19.0138889 C4.41975309,19.0138889 4.01234568,18.9768519 3.59259259,18.9027778 C4.01234568,20.2114198 4.78395062,21.2916667 5.90740741,22.1435185 C7.0308642,22.9953704 8.2962963,23.433642 9.7037037,23.4583333 C7.11111111,25.5324074 4.39506173,26.5694444 1.55555556,26.5694444 C1.03703704,26.5694444 0.518518519,26.5324074 0,26.4583333 C2.7654321,28.2361111 6.12345679,29.125 10.0740741,29.125 Z" id="t" fill="#4F4F4F" fill-rule="nonzero"></path>
    </g>
</svg>