<svg width="141" height="35" viewBox="0 0 141 35" xmlns="http://www.w3.org/2000/svg"><path d="M87.497 17.44c0-10.672-3.543-15.86-10.832-15.86h-.424c-1.966 0-2.536.572-2.536 2.55v26.586c0 1.977.57 2.55 2.536 2.55h.424c7.289 0 10.832-5.178 10.832-15.827zm5.91-.049c0 10.129-6.653 16.934-16.553 16.934H64.92v-1.06h.762c1.967 0 2.536-.572 2.536-2.55V4.13c0-1.977-.569-2.549-2.536-2.549h-.762V.474h11.934c9.9 0 16.553 6.798 16.553 16.917zm-49.682-8.62c0-5.115-2.263-7.53-7.118-7.53h-.848c-2.12 0-2.875.709-2.875 2.888v12.126h3.3c5.23 0 7.541-2.322 7.541-7.484zm6.27 24.494h.855v1.06h-2.413c-4.062 0-5.663-2.113-5.71-7.538v-1.945c0-7.157-1.95-7.869-6.732-7.869h-2.773v13.743c0 1.977.57 2.55 2.537 2.55h1.045v1.059H24.485v-1.06h.762c1.969 0 2.538-.572 2.538-2.55V4.13c0-1.977-.57-2.549-2.538-2.549h-.573V.474h12.782c5.626 0 11.32 2.98 11.32 8.676 0 4.418-3.36 6.603-7.275 7.34 3.898.904 6.804 3.385 6.804 9.821v4.45c0 1.872.427 2.504 1.69 2.504zM19.796 25.27c0-5.737-2.367-8.296-7.675-8.296H8.784v13.743c0 1.977.57 2.55 2.537 2.55h1.415c4.884 0 7.061-2.468 7.061-7.997zM8.784 15.915h3.338c4.395 0 6.356-2.219 6.356-7.192 0-4.94-1.99-7.143-6.449-7.143h-.708c-1.968 0-2.537.572-2.537 2.55v11.785zm16.781 9.638c0 5.493-4.496 8.772-12.03 8.772H0v-1.06h.764c1.966 0 2.536-.572 2.536-2.55V4.13c0-1.978-.57-2.55-2.536-2.55H0V.474h12.923c6.546 0 10.944 3.409 10.944 8.486 0 4.51-3.264 6.74-7.025 7.485 4.607.978 8.723 3.733 8.723 9.108zm90.827-3.329c-.322 7.98-3.306 11.088-10.644 11.088h-1.65c-1.968 0-2.538-.571-2.538-2.55V17.02h2.208c4.296 0 6.213 2.076 6.213 6.732v.34h1.054V9.425h-1.054v.34c0 5.16-2.378 6.196-6.213 6.196h-2.208V4.177c0-1.977.57-2.55 2.538-2.55h1.65c6.65 0 9.748 3.068 9.748 9.655v.34h1.053V.52H92.824v1.107h.763c1.967 0 2.537.572 2.537 2.549v26.585c0 1.979-.57 2.55-2.537 2.55h-.763v1.06h24.622V21.897h-1.042l-.012.327zm18.972-6.799c-1.272-.604-2.628-1.11-3.94-1.597-4.23-1.573-7.885-2.932-7.885-6.951 0-2.78 1.959-5.77 6.259-5.77 4.939 0 8.523 4.259 8.523 10.127v.34h1.007V0h-1.007v.34c0 1.27-.6 1.27-.887 1.27-.556 0-1.344-.246-2.255-.531C133.639.597 131.722 0 129.374 0c-5.75 0-9.765 3.762-9.765 9.15 0 4.32 2.52 7.062 8.701 9.463.372.143.749.282 1.126.422 3.859 1.423 7.848 2.894 7.848 7.845 0 4.102-2.61 6.858-6.496 6.858-7.357 0-10.786-6.891-10.786-11.548v-.34h-1.053v12.475h1.053v-.34c0-.907.458-1.366 1.36-1.366.788 0 1.637.322 2.712.73 1.65.624 3.704 1.402 6.62 1.402 6.26 0 10.306-4 10.306-10.193 0-4.527-1.685-7.259-5.636-9.133zM51.694.474H63.78V1.58h-.762c-1.967 0-2.537.572-2.537 2.55v26.586c0 1.977.57 2.55 2.537 2.55h.762v1.059H51.695v-1.06h.764c1.967 0 2.536-.572 2.536-2.55V4.13c0-1.977-.569-2.549-2.536-2.549h-.764V.474z" fill-rule="evenodd"/></svg>