<svg enable-background="new 0 0 268.653 60" viewBox="0 0 268.653 60" xmlns="http://www.w3.org/2000/svg"><path d="m0 .0001v60" fill="none"/><g fill="#333"><path d="m45.319 46.4919-9.5511-34.4789h-2.7773l-10.1607 34.4789h-3.5224v1.3548h8.1286v-1.3548h-3.2514l3.116-10.5672h8.3996l2.845 10.5672h-3.0483v1.3548h12.8703v-1.3548s-3.0482 0-3.0483 0zm-17.6797-11.922 3.9966-13.6154 3.6579 13.6154c-.0001 0-7.6545 0-7.6545 0zm-27.6373-22.5569v1.3548h3.1837v33.1241h-3.1837v1.3548h13.5477v-1.3548h-3.5902v-16.325h3.3869c2.4386 0 3.3869 2.7095 3.4547 5.7578h1.3548v-12.8703h-1.3548c-.0677 3.116-1.0838 5.7578-3.4547 5.7578h-3.3869v-15.4444h6.9093c3.3869 0 5.4191 4.0643 5.4191 8.8737h1.3548v-10.2285zm50.8039 13.8186c.5419 2.2354 2.0999 3.9288 4.132 4.9449 1.4225.7451 2.845 1.2193 4.403 1.8289 1.4225.6096 3.3869 1.1516 4.7417 1.8967 1.4902.8129 2.0999 1.8289 2.6418 3.1837.6096 1.4225.6774 2.7095.3387 4.2675-.4742 2.2354-1.4902 4.1998-3.5224 5.2836l-.2032.0677c-1.0161.4064-2.0999.5419-3.1837.4064-.8129-.1355-1.6935-.4742-2.5063-.9483-.8806-.5419-1.6935-1.0838-2.3031-1.7612-2.5063-2.6418-3.0482-6.1642-3.5901-8.5351h-1.287v11.3123h1.3548v-1.0161c0-.4064.4742-.6774.9483-.4064 2.7095 1.6935 7.7222 2.7773 11.3801 1.8967 2.6418-.8129 4.8094-1.8967 6.3674-4.403 1.3548-2.2354 2.1676-4.6062 2.0999-7.3158-.0677-3.7934-1.6935-6.5706-5.1481-8.3996-2.3031-1.2193-5.1481-1.7612-7.4512-2.845-1.558-.7451-2.9805-1.6935-3.7256-3.2514-1.2193-2.6418-.9483-6.7739 1.6257-8.806 1.3548-1.0838 3.2515-1.0838 4.8772-.9483 6.2319 1.0838 6.5029 8.1286 6.5706 10.9736h1.3548v-10.1606l-2.9805-.7451c-2.9128-.6774-6.1642-1.8289-9.2802-.9483-3.3869 1.0161-5.8255 2.9128-7.1125 6.3674-1.2195 2.7772-1.2195 5.3513-.5421 8.0608z"/><path d="m74.1079 12.1485v1.3547h2.9805v32.9887h-2.9805v1.3548h2.9805 6.7739 3.0482v-1.3548h-3.0482v-15.8508h9.4156v15.8508h-2.9805v1.3548h2.9805 6.8416 2.9805v-1.3548h-2.9805v-32.9887h2.9805v-1.3547h-2.9805-6.8416-2.9805v1.3547h2.9805v15.7831h-9.4156v-15.7831h3.0482v-1.3547h-3.0482-6.7739z"/><path d="m105.2676 12.1485v1.3547h3.5225v32.9887h-3.5225v1.3548h3.5225 6.8415 2.9805v-1.3548h-2.9805v-32.9887h2.9805v-1.3547h-2.9805-6.8415z"/><path d="m179.5768 12.013v1.3548h3.0482v33.1241h-3.0482v1.3548h3.0482 6.7739 2.9805v-1.3548h-2.9805v-33.1241h2.9805v-1.3548h-2.9805-6.7739z"/><path d="m208.9076 48.3886c.0677-.0678.1355-.0678 0 0zm9.0092-35.0208v8.8737h1.3548c0-4.8094 2.0322-8.8737 5.4191-8.8737h2.4386v33.1241h-3.5224v1.3548h13.8864v-1.3548h-3.5224v-33.1241h2.4386c3.3869 0 5.4191 4.0643 5.4191 8.8737h1.3548v-10.2285h-25.4019v1.3548z"/><path d="m150.8557 12.2162v1.3548h2.845v32.8532h-2.5063v1.3547h2.7095 1.3548 2.6418v-1.3547h-2.6418v-30.1437l16.1895 31.5662h3.6579v-34.4789h2.3708v-1.3548h-2.6418-1.3548-2.7095v1.3548h2.7095v25.1987l-13.4799-26.3503h-6.0965z"/><path d="m134.8694 11.6066c-7.9931 0-14.4283 5.8933-14.4283 18.2894 0 12.1929 6.4352 18.2894 14.4283 18.2894s14.4283-5.7578 14.4283-18.2894c0-12.4639-6.5029-18.2894-14.4283-18.2894zm0 35.5627c-3.9966 0-7.248-5.7578-7.248-17.2733 0-11.7188 3.2515-17.2733 7.248-17.2733s7.248 5.4868 7.248 17.2733c0 11.8542-3.2514 17.2733-7.248 17.2733zm130.8031-.6774-9.6189-34.4112h-2.7773l-10.1608 34.4112h-3.5224v1.3548h8.1286v-1.3548h-3.2514l3.116-10.5672h8.3996l2.845 10.5672h-3.0482v1.3548h12.8703v-1.3548zm-17.6798-11.922 3.9966-13.6154 3.6579 13.6154zm-52.7006-8.7383c.5419 2.2354 2.0999 3.9288 4.132 4.9449 1.4225.7451 2.845 1.2193 4.403 1.8289 1.4225.6096 3.3869 1.1516 4.7417 1.8967 1.4902.8129 2.0999 1.8289 2.6418 3.1837.6096 1.4225.6774 2.7095.3387 4.2675-.4742 2.2354-1.4903 4.1998-3.5224 5.2836l-.2032.0677c-1.0161.4064-2.0999.5419-3.1837.4064-.8129-.1355-1.6935-.4742-2.5063-.9483-.8806-.5419-1.6935-1.0838-2.3031-1.7612-2.5063-2.6418-3.0482-6.1642-3.5901-8.5351h-1.287v11.3123h1.3548v-1.0161c0-.4064.4742-.6774.9483-.4064 2.7095 1.6935 7.7222 2.7773 11.3801 1.8967 2.6418-.8129 4.8094-1.8967 6.3674-4.403 1.3548-2.2354 2.1676-4.6062 2.0999-7.3158-.0677-3.7934-1.6935-6.5706-5.1481-8.3996-2.3031-1.2193-5.1481-1.7612-7.4512-2.845-1.558-.7451-2.9805-1.6935-3.7256-3.2514-1.2193-2.6418-.9483-6.7739 1.6257-8.806 1.3548-1.0838 3.2514-1.0838 4.8772-.9483 6.2319 1.0838 6.5029 8.1286 6.5706 10.9736h1.3548v-10.1606l-2.9805-.7451c-2.9128-.6774-6.1642-1.8289-9.2802-.9483-3.3869 1.0161-5.8255 2.9128-7.1125 6.3674-1.1517 2.7772-1.1517 5.3513-.5421 8.0608z"/></g></svg>