<?xml version="1.0" encoding="UTF-8"?>
<svg width="41px" height="36px" viewBox="0 0 41 36" version="1.1" xmlns="http://www.w3.org/2000/svg" xmlns:xlink="http://www.w3.org/1999/xlink">
    <!-- Generator: Sketch 46.2 (44496) - http://www.bohemiancoding.com/sketch -->
    <title>Combined Shape</title>
    <desc>Created with Sketch.</desc>
    <defs></defs>
    <g id="Page-1" stroke="none" stroke-width="1" fill="none" fill-rule="evenodd">
        <g id="inbox" fill-rule="nonzero" fill="#979797">
            <path d="M33.1,2.3 L7.2,2.3 L4,13.7 L1.6,13.7 L5.4,0 L34.9,0 L38.9,13.7 L36.4,13.7 L33.1,2.3 Z M40.4,17.9 C40.4,18 40.4,18 40.4,17.9 C40.4,18.3 40.4,19.1 40.4,19.2 L40.4,32.9 C40.4,34.3 39.3,35.4 37.9,35.4 L2.5,35.4 C1.1,35.4 0,34.3 0,32.9 L0,19.1 C0,19 0,18.5 0,18.1 C0,18 0,18 0,17.9 C0,17.3 0.5,16.7 1.2,16.7 L2.9,16.7 L15,16.7 C15,19.7 17.2,21.8 20.2,21.8 C23.3,21.8 25.4,19.7 25.5,16.7 L37.3,16.7 L39.2,16.7 C39.8,16.7 40.4,17.2 40.4,17.9 Z" id="Combined-Shape"></path>
        </g>
    </g>
</svg>