<?xml version="1.0" encoding="UTF-8"?>
<svg width="41px" height="34px" viewBox="0 0 41 34" version="1.1" xmlns="http://www.w3.org/2000/svg" xmlns:xlink="http://www.w3.org/1999/xlink">
    <!-- Generator: Sketch 46.2 (44496) - http://www.bohemiancoding.com/sketch -->
    <title>Combined Shape</title>
    <desc>Created with Sketch.</desc>
    <defs></defs>
    <g id="Page-1" stroke="none" stroke-width="1" fill="none" fill-rule="evenodd">
        <g id="rollup" fill-rule="nonzero" fill="#979797">
            <path d="M37.7,0 C39.3,0 40.5,1.3 40.6,2.8 L40.6,31.1 C40.6,32.6 39.4,33.9 37.8,33.9 L35.5,33.9 L32.9,30.4 L32.9,7.9 C32.9,6 31.3,4.4 29.4,4.4 L9.7,4.4 L9.7,2.8 C9.7,1.3 11,0 12.6,0 L37.7,0 Z M30.4,9.8 L30.4,30.6 L32.8,33.8 L12.6,33.8 L3.5,33.8 L3.2,33.8 C1.4,33.8 0,32.4 0,30.6 L0,30.3 L0,9.8 C0,8 1.4,6.6 3.2,6.6 L9.7,6.6 L27.2,6.6 C29,6.6 30.4,8 30.4,9.8 Z M4,21.4 L4,23.1 L16.1,23.1 L16.1,21.4 L16.1,19.5 L16.1,17.8 L16.1,15.8 L16.1,14.1 L4,14.1 L4,15.8 L4,17.8 L4,19.5 L4,21.4 Z M26.4,30.5 L26.4,28.8 L4,28.8 L4,30.5 L26.4,30.5 Z M26.4,26.9 L26.4,25.2 L4,25.2 L4,26.9 L26.4,26.9 Z M26.4,23.1 L26.4,21.4 L17.9,21.4 L17.9,23.1 L26.4,23.1 Z M26.4,19.5 L26.4,17.8 L17.9,17.8 L17.9,19.5 L26.4,19.5 Z M26.4,15.8 L26.4,14.1 L17.9,14.1 L17.9,15.8 L26.4,15.8 Z M26.4,11.9 L26.4,10.2 L4,10.2 L4,11.9 L26.4,11.9 Z" id="Combined-Shape"></path>
        </g>
    </g>
</svg>