<?xml version="1.0" encoding="UTF-8"?>
<svg width="50px" height="35px" viewBox="0 0 50 35" version="1.1" xmlns="http://www.w3.org/2000/svg" xmlns:xlink="http://www.w3.org/1999/xlink">
    <!-- Generator: Sketch 46.2 (44496) - http://www.bohemiancoding.com/sketch -->
    <title>Combined Shape</title>
    <desc>Created with Sketch.</desc>
    <defs></defs>
    <g id="Page-1" stroke="none" stroke-width="1" fill="none" fill-rule="evenodd">
        <g id="unsubscribe" fill-rule="nonzero" fill="#979797">
            <path d="M8.6,12.4 L12.4,14.7 L0,22.2 L0,7.1 L8.6,12.4 Z M32.7,20.7 C31.6,22.3 31,24.2 31,26.3 C31,27 31.1,27.7 31.2,28.3 L4,28.3 C2.1,28.3 0.4,26.9 0.1,25 L14.7,16.1 L18.6,18.5 L19.9,19.3 L21.2,18.5 L25.1,16.1 L32.7,20.7 Z M39.8,7.1 L39.9,7.1 L39.9,16.2 C37.7,16.5 35.8,17.5 34.3,18.9 L27.4,14.8 L31.2,12.4 L39.8,7.1 Z M19.9,16.6 L9.8,10.4 L0,4.4 L0,4 C0,1.8 1.8,0 4,0 L35.8,0 C38,0 39.8,1.8 39.8,4 L39.8,4.5 L30,10.5 L19.9,16.6 Z M41.3,18 C45.8,18 49.6,21.6 49.6,26.2 C49.6,30.8 45.9,34.5 41.3,34.5 C37.4,34.5 34.2,31.9 33.3,28.3 C33.1,27.7 33,27 33,26.3 C33,24.6 33.5,23 34.4,21.7 C34.8,21 35.4,20.4 36,19.9 C37,19 38.4,18.4 39.8,18.1 C40.3,18.1 40.8,18 41.3,18 Z M45.7,29 L43,26.2 L45.7,23.5 L44,21.8 L41.3,24.5 L38.6,21.8 L37.1,23.3 L36.9,23.5 L39.4,26 L39.6,26.3 L36.9,29 L38.6,30.7 L41.3,28 L44,30.7 L45.7,29 Z" id="Combined-Shape"></path>
        </g>
    </g>
</svg>